<svg width="118" height="139" viewBox="0 0 118 139" fill="none" xmlns="http://www.w3.org/2000/svg">
<path d="M113.089 55.0166C108.62 54.8776 104.61 51.9666 102.006 48.3316C99.661 45.0596 98.265 41.2316 96.963 37.4116C99.472 35.5336 101.418 32.7916 102.966 30.0126C107.779 21.3706 110.073 11.3456 109.496 1.47062C109.468 0.972619 109.387 0.39961 108.962 0.13961C108.672 -0.0383904 108.305 -0.00938278 107.966 0.0286172C96.069 1.34962 85.155 6.77862 76.623 15.1586C76.446 15.1116 76.268 15.0716 76.091 15.0276C74.484 14.6286 72.849 14.3396 71.216 14.1636C71.172 14.1586 71.127 14.1516 71.082 14.1466C70.26 14.0616 69.451 14.0016 68.649 13.9586C63.515 13.6836 58.768 14.2326 53.746 15.0276C53.058 15.1356 52.365 15.2506 51.666 15.3666C50.959 15.4846 50.247 15.6036 49.524 15.7256C48.138 16.1146 46.782 16.5916 45.456 17.1416C45.321 17.1976 45.185 17.2506 45.05 17.3086C42.864 15.6386 40.357 14.3186 37.874 13.1066C32.8 10.6296 27.548 8.37261 21.986 7.39661C16.424 6.42061 10.48 6.81062 5.47 9.41462C5.108 9.60262 4.732 9.82162 4.538 10.1816C4.321 10.5826 4.378 11.0716 4.449 11.5216C6.011 21.4606 11.245 30.5456 17.917 38.0756C19.442 39.7976 21.063 41.4606 22.85 42.9036C22.011 46.0656 21.475 49.3106 20.453 52.4176C19.071 56.6116 16.675 60.6386 12.966 63.0336C9.257 65.4296 3.58 65.9576 0 63.3756L0.0209961 63.4366C0.681996 64.1906 1.363 64.9346 2.06 65.6676C10.371 74.4176 21.09 81.5956 32.538 85.5246C30.565 89.1256 29.615 93.3116 29.465 97.4416C29.261 103.077 30.422 108.668 31.773 114.142C32.952 112.341 35.271 111.781 37.249 110.932C39.903 109.793 42.227 107.896 43.873 105.523C42.172 110.956 44.932 116.68 47.612 121.703C47.885 119.85 48.675 117.514 50.549 117.488C51.338 117.477 52.053 117.927 52.695 118.385C59.269 123.07 63.876 130.431 65.216 138.392C68.885 134.621 72.615 130.764 74.918 126.034C77.658 120.405 78.164 113.989 78.626 107.746C80.657 108.554 81.213 111.114 81.482 113.284C83.032 111.613 84.177 109.569 84.795 107.375C85.433 108.626 85.75 110.039 85.709 111.442C91.378 107.83 95.707 101.987 96.968 95.3836C98.04 89.7616 96.737 83.6616 93.322 79.1116C101.798 73.2256 108.651 65.0576 114.842 56.6376C115.63 55.5646 116.408 54.4886 117.178 53.4116C116.432 54.4046 114.328 55.0546 113.089 55.0166Z" fill="#B4B4B4"/>
<path d="M105.052 19.2266C106.65 14.4046 107.755 9.37862 107.779 4.29862C107.781 3.99062 107.771 3.65862 107.584 3.41462C107.215 2.93362 106.462 3.09862 105.899 3.32462C97.878 6.54062 91.288 12.5396 86.107 19.5176C87.893 20.7946 89.505 22.2976 90.854 24.0576C93.23 27.1566 94.683 30.8316 95.968 34.5346C100.33 30.6136 103.173 24.9006 105.052 19.2266Z" fill="#CDCCCC"/>
<path d="M10.097 17.4117C9.79 17.5107 9.46 17.6317 9.286 17.9037C9.055 18.2647 9.186 18.7377 9.329 19.1417C12.237 27.3537 17.124 34.8497 23.437 40.8517C26.348 31.8527 32.791 24.0947 40.964 19.3557C31.389 14.9497 20.142 14.1647 10.097 17.4117Z" fill="#CDCCCC"/>
<path d="M69.216 38.5746C70.458 30.4706 72.775 22.5316 76.077 15.0266C74.47 14.6276 72.835 14.3386 71.202 14.1626C69.304 22.1366 68.627 30.3996 69.216 38.5746Z" fill="#4E4D4D"/>
<path d="M68.635 13.9586C63.501 13.6836 58.754 14.2326 53.732 15.0276C58.039 22.4716 61.17 30.5946 62.959 39.0066C63.992 30.4966 65.31 21.7746 68.635 13.9586Z" fill="#4E4D4D"/>
<path d="M51.652 15.3666C50.945 15.4846 50.233 15.6036 49.51 15.7256C48.124 16.1146 46.768 16.5916 45.442 17.1416C45.647 17.4666 45.845 17.7966 46.048 18.1236C50.261 24.9046 53.992 31.9846 57.189 39.3006C56.188 31.1576 54.325 23.1216 51.652 15.3666Z" fill="#4E4D4D"/>
<path d="M53.226 39.3006C52.014 37.5266 50.205 36.2816 48.171 35.7706C46.848 35.4376 45.429 35.4126 44.014 35.7636C43.786 35.8156 43.559 35.8747 43.332 35.9417C39.76 36.9897 36.371 39.8587 35.931 44.2737C35.463 48.9687 38.995 53.7246 43.625 54.6346C48.255 55.5446 53.323 52.4786 54.667 47.9556C55.529 45.0576 54.932 41.7966 53.226 39.3006Z" fill="#8EC045"/>
<path d="M86.165 34.6405C85.369 33.8475 84.417 33.1805 83.378 32.7635C82.672 32.4795 81.926 32.3105 81.161 32.3015C79.486 32.4365 78.325 32.6355 77.07 33.3935C76.652 33.6465 76.222 33.9615 75.76 34.3565C73.829 36.0095 72.402 38.2885 71.954 40.7905C71.506 43.2925 72.091 45.9995 73.685 47.9785C75.757 50.5505 79.455 51.6345 82.625 50.7095C85.797 49.7845 88.301 46.9625 88.969 43.7285C89.639 40.4925 88.505 36.9725 86.165 34.6405Z" fill="#8EC045"/>
<path d="M50.743 42.7666C50.656 41.1576 50.219 39.4106 49.475 37.8586C49.112 37.1016 48.676 36.3946 48.171 35.7706C46.848 35.4376 45.429 35.4126 44.014 35.7636C43.786 35.8156 43.559 35.8747 43.332 35.9417C41.345 38.6377 40.469 42.1326 40.97 45.4466C41.489 48.8786 43.474 52.0637 46.326 54.0407C46.565 54.2067 46.834 54.3706 47.124 54.3496C47.368 54.3316 47.583 54.1836 47.769 54.0226C48.746 53.1706 49.198 51.8787 49.565 50.6357C50.26 48.2837 50.788 45.8506 50.757 43.4046C50.755 43.1916 50.755 42.9786 50.743 42.7666Z" fill="#4E4D4D"/>
<path d="M47.773 46.6057C48.208 46.1487 47.95 45.2537 47.338 45.0977L47.302 45.0897C46.685 44.9587 46.057 45.6467 46.243 46.2497C46.431 46.8507 47.338 47.0627 47.773 46.6057Z" fill="white"/>
<path d="M86.738 62.1887C82.97 61.0467 78.112 58.8317 74.306 57.8267C70.67 56.8677 65.278 56.3677 61.548 56.8457C45.61 58.8887 34.989 73.2587 18.924 72.9547C11.888 72.8217 7.358 69.7457 2.045 65.6667C10.356 74.4167 21.075 81.5947 32.523 85.5237C34.434 86.1797 36.366 86.7487 38.31 87.2157C41.581 88.0017 44.973 88.5627 48.303 88.0807C49.146 87.9587 50.01 87.7707 50.837 87.9737C51.589 88.1587 52.224 88.6457 52.867 89.0777C58.61 92.9317 66.825 92.6257 72.265 88.3557C72.913 87.8467 73.535 87.2817 74.283 86.9337C75.11 86.5477 76.038 86.4527 76.939 86.3137C80.842 85.7107 84.557 84.2027 88.04 82.3417C89.865 81.3667 91.616 80.2827 93.305 79.1107C101.781 73.2247 108.634 65.0567 114.825 56.6367C106.909 62.7877 96.966 65.2907 86.738 62.1887Z" fill="#CDCCCC"/>
<path d="M105.001 45.2887C96.429 51.9247 87.856 58.5597 79.284 65.1967C78.952 65.4537 79.418 65.9137 79.747 65.6587C88.319 59.0227 96.892 52.3877 105.464 45.7507C105.796 45.4947 105.33 45.0347 105.001 45.2887Z" fill="#4E4D4D"/>
<path d="M109.788 47.0078C100.955 53.6588 92.122 60.3098 83.288 66.9608C82.956 67.2108 83.282 67.7788 83.619 67.5258C92.452 60.8748 101.285 54.2238 110.118 47.5728C110.45 47.3218 110.125 46.7538 109.788 47.0078Z" fill="#4E4D4D"/>
<path d="M115.071 48.3818C105.907 55.1908 96.742 61.9998 87.578 68.8088C87.244 69.0578 87.57 69.6248 87.908 69.3738C97.072 62.5648 106.237 55.7558 115.401 48.9468C115.736 48.6988 115.41 48.1298 115.071 48.3818Z" fill="#4E4D4D"/>
<path d="M39.355 69.6868C30.167 63.0738 20.98 56.4598 11.792 49.8478C11.45 49.6008 11.123 50.1688 11.462 50.4118C20.65 57.0248 29.837 63.6388 39.025 70.2518C39.368 70.4978 39.695 69.9308 39.355 69.6868Z" fill="#4E4D4D"/>
<path d="M36.362 72.8637C27.367 66.9737 18.371 61.0847 9.376 55.1957C9.022 54.9647 8.694 55.5307 9.046 55.7607C18.041 61.6497 27.037 67.5397 36.032 73.4287C36.385 73.6597 36.713 73.0937 36.362 72.8637Z" fill="#4E4D4D"/>
<path d="M30.742 75.8948C22.288 70.2578 13.833 64.6208 5.379 58.9828C5.027 58.7488 4.699 59.3148 5.048 59.5478C13.503 65.1848 21.958 70.8218 30.412 76.4598C30.763 76.6938 31.092 76.1278 30.742 75.8948Z" fill="#4E4D4D"/>
<path d="M63.371 76.3596C63.092 76.0776 62.836 75.7745 62.599 75.4555C62.591 75.4455 62.581 75.4296 62.573 75.4146C61.81 77.4946 59.897 78.8005 57.793 79.4576C58.087 80.9385 58.499 82.2856 58.965 82.9246C60.071 84.4406 62.04 85.3605 63.878 84.9825C65.619 84.6245 67.005 83.1765 67.622 81.5085C67.851 80.8855 67.967 79.8265 68.001 78.6545C67.086 78.5555 66.19 78.2745 65.368 77.8405C64.635 77.4535 63.954 76.9466 63.371 76.3596Z" fill="#F3A4C8"/>
<path d="M74.854 71.8316C74.582 74.7256 72.166 77.4356 69.2 77.7036C68.8 77.7396 68.402 77.7246 68.009 77.6746C67.029 77.5486 66.084 77.1746 65.252 76.6346C64.626 76.2286 64.062 75.7166 63.588 75.1406C63.279 74.7656 63.042 74.0906 62.618 73.8546C62.366 73.7136 61.951 73.8246 61.897 74.1476C61.514 76.4476 59.69 77.8266 57.619 78.4976C57.132 78.6556 56.631 78.7746 56.132 78.8576C53.528 79.2856 50.199 78.7486 49.162 75.9476C48.944 75.3606 47.996 75.6146 48.216 76.2086C49.383 79.3586 52.846 80.2816 55.903 79.8766C56.533 79.7936 57.171 79.6526 57.793 79.4596C59.897 78.8026 61.811 77.4966 62.573 75.4166C62.582 75.4306 62.592 75.4466 62.599 75.4576C62.836 75.7756 63.092 76.0796 63.371 76.3616C63.954 76.9486 64.636 77.4556 65.367 77.8416C66.189 78.2756 67.085 78.5566 68 78.6556C68.631 78.7246 69.271 78.7086 69.906 78.5866C73.127 77.9666 75.534 75.0356 75.836 71.8326C75.895 71.2036 74.914 71.2066 74.854 71.8316Z" fill="#4E4D4D"/>
<path d="M84.588 35.3745C84.468 34.9795 84.327 34.5865 84.166 34.2045C83.951 33.6955 83.693 33.2075 83.378 32.7635C82.672 32.4795 81.926 32.3105 81.161 32.3015C79.486 32.4365 78.325 32.6355 77.07 33.3935C75.838 36.0265 75.42 39.0385 75.913 41.9045C76.462 45.0955 78.133 48.0835 80.564 50.2215C80.785 50.4155 81.031 50.6115 81.323 50.6415C81.845 50.6945 82.255 50.2185 82.541 49.7795C84.27 47.1315 85.212 43.9925 85.305 40.8325C85.359 38.9905 85.126 37.1405 84.588 35.3745Z" fill="#4E4D4D"/>
<path d="M81.211 44.0726C81.759 43.5156 81.45 42.3996 80.693 42.2036C79.937 42.0076 79.125 42.8326 79.334 43.5856C79.543 44.3396 80.663 44.6296 81.211 44.0726Z" fill="white"/>
<path d="M51.027 39.1395C50.648 38.5735 50.097 38.1325 49.475 37.8585C49.045 37.6705 48.582 37.5595 48.114 37.5515C47.454 37.6815 45.853 38.1785 45.495 39.8615C45.137 41.5445 46.328 43.3345 47.959 43.8835C48.814 44.1715 49.825 44.1425 50.544 43.5965C50.62 43.5385 50.69 43.4715 50.758 43.4045C51.03 43.1335 51.238 42.7975 51.379 42.4385C51.802 41.3685 51.666 40.0955 51.027 39.1395Z" fill="white"/>
<path d="M84.277 34.2365C84.24 34.2235 84.203 34.2155 84.166 34.2045C82.362 33.6475 80.887 34.7755 80.256 36.5905C79.612 38.4445 80.496 40.6055 82.362 41.2105C83.339 41.5265 84.42 41.3455 85.304 40.8335C86.111 40.3665 86.755 39.6255 87.005 38.7235C87.529 36.8325 86.199 34.6345 84.277 34.2365Z" fill="white"/>
<path d="M67.738 61.7897C66.675 62.2017 65.723 62.8627 64.662 63.2807C62.723 64.0437 60.533 63.9417 58.512 63.4307C57.754 63.2397 57.001 62.9917 56.221 62.9557C55.44 62.9197 54.603 63.1307 54.086 63.7177C53.063 64.8807 53.87 66.8227 55.174 67.6607C56.478 68.4977 58.094 68.6467 59.559 69.1507C61.025 69.6557 62.512 70.7997 62.506 72.3497C62.789 70.8027 63.991 69.5717 65.319 68.7277C66.647 67.8837 68.139 67.3277 69.485 66.5127C70.429 65.9397 71.359 65.1437 71.56 64.0577C71.762 62.9717 71.498 62.3247 71.027 61.8727C70.074 61.2477 68.801 61.3777 67.738 61.7897Z" fill="#4E4D4D"/>
</svg>
