<svg width="168" height="99" viewBox="0 0 168 99" fill="none" xmlns="http://www.w3.org/2000/svg">
<path d="M165.416 39.9781C162.675 34.3771 155.163 30.5531 148.937 30.2161C147.876 25.6131 146.369 22.2111 143.481 19.0311C142.846 18.3321 142.146 17.6441 141.368 16.9561C140.925 16.5651 140.466 16.1921 139.999 15.8301C138.833 14.9281 137.596 14.1191 136.302 13.4131C134.821 12.6031 133.266 11.9281 131.663 11.3961C129.759 10.7641 127.789 10.3301 125.792 10.1241C125.41 10.0841 125.028 10.0551 124.646 10.0321C123.515 9.96206 122.385 9.96006 121.257 10.0201C119.71 10.1031 118.168 10.3031 116.643 10.6051C114.236 11.0831 111.867 11.8141 109.573 12.7401C107.585 13.5421 105.652 14.4891 103.798 15.5431C103.474 15.7271 103.153 15.9171 102.833 16.1071C100.992 17.2021 99.2152 18.3941 97.4862 19.6561C96.3472 20.4871 95.2282 21.3461 94.1262 22.2271C93.0402 23.0951 91.9682 23.9831 90.9062 24.8841C89.9232 25.7181 88.9482 26.5641 87.9782 27.4141C87.2032 28.0941 86.4302 28.7751 85.6592 29.4571C85.6692 28.6391 85.6762 27.8211 85.6812 27.0041C85.6832 26.7451 85.6852 26.4861 85.6872 26.2271C85.6932 25.3101 85.7002 24.3921 85.7072 23.4751C85.7122 22.6931 85.7182 21.9121 85.7232 21.1301C85.7392 18.9701 85.7542 16.8091 85.7692 14.6491C85.8042 9.73805 86.2722 -0.0259482 84.6562 5.18219e-05C83.2382 0.190052 82.2492 1.45805 81.4212 2.62505C78.4462 6.81305 75.4722 11.0011 72.4972 15.1891L72.4532 15.2101C71.1672 15.0951 69.8902 15.0051 68.6152 14.9321C67.8222 14.8871 67.0312 14.8491 66.2422 14.8191C65.4662 14.7901 64.6912 14.7691 63.9182 14.7551C62.6322 14.7331 61.3512 14.7321 60.0712 14.7501C59.3332 14.7601 58.5962 14.7771 57.8602 14.8001C55.7572 14.8661 53.6602 14.9861 51.5632 15.1541C50.2352 15.2611 48.9062 15.3861 47.5772 15.5321C46.4402 15.6571 45.3042 15.7951 44.1652 15.9471C43.0892 16.0901 42.0112 16.2441 40.9312 16.4101C40.2202 16.5201 39.5072 16.6341 38.7932 16.7531C38.1532 16.8601 37.5132 16.9691 36.8712 17.0831C34.5882 13.6911 32.5472 10.1401 30.2642 6.74805C29.4872 5.59405 28.7062 4.43505 27.7642 3.41205C27.4192 3.03705 26.9732 2.65406 26.4702 2.72706C25.7652 2.83106 25.5102 3.70206 25.4202 4.40906C24.6112 10.7431 24.6172 17.1221 24.9992 23.5011C25.1002 25.1861 25.2272 26.8701 25.3722 28.5531C25.5342 30.4331 25.7192 32.3121 25.9152 34.1881C26.0732 35.7041 26.2392 37.2191 26.4062 38.7311C26.4492 39.1221 26.4932 39.5121 26.5362 39.9031C26.9182 43.3071 27.6942 47.5431 28.4322 50.8351C28.6702 51.9011 28.9522 52.9861 29.5732 53.8841C30.0952 54.6391 30.8192 55.2071 31.6292 55.6501C30.2732 56.8731 29.3222 58.5501 29.0022 60.3501C28.9322 60.7461 28.8792 61.1741 28.6132 61.4761C28.2572 61.882 27.6492 61.9211 27.1102 61.9441C20.2162 62.2321 13.4212 64.5631 7.80317 68.5691C5.70917 67.4981 2.91917 67.8831 1.30917 69.5961C-0.301829 71.3081 -0.470833 74.243 1.05217 76.034C1.20017 76.2091 1.36717 76.3651 1.54217 76.5101C1.58517 77.5131 1.84117 78.4951 2.38717 79.3321L3.20517 77.3641C4.63817 77.7551 6.26016 77.4801 7.33616 76.4511C7.11416 77.2011 7.29617 77.9991 7.72317 78.6531C7.60817 79.7261 7.71317 80.8221 8.05317 81.8461L9.12018 79.8361C9.19418 79.8671 9.26917 79.8971 9.34717 79.9211C10.7582 80.3711 12.3682 79.8001 13.3922 78.7311C13.6082 79.5071 14.0832 80.1961 14.7052 80.7061C14.7752 81.6271 15.0332 82.5211 15.5362 83.2921L16.2812 81.5001C16.4002 81.5291 16.5202 81.5541 16.6412 81.5701C18.1512 81.7771 19.7482 81.0141 20.5372 79.7111C20.6952 79.4501 20.8252 79.1661 21.0372 78.9461C21.3522 78.619 21.8062 78.4751 22.2402 78.3421C23.9052 77.8321 25.5702 77.3221 27.2352 76.8131C27.0142 77.6031 27.1372 78.4601 27.5092 79.1891C27.3012 80.2781 27.3502 81.3971 27.8172 82.3911L28.9372 80.6371C30.2902 81.3091 32.0912 80.8901 33.0082 79.6901C33.1622 80.5301 33.5502 81.3251 34.0952 81.9841C34.0972 82.9221 34.2922 83.8481 34.7272 84.6861L35.4612 83.1391C35.9492 83.4181 36.4842 83.6101 37.0482 83.6811C39.0572 83.9351 41.1992 82.5141 41.5612 80.5221L41.7862 80.2561C55.3442 77.4601 68.8592 74.4581 82.3252 71.2521C83.6672 70.9331 85.0312 70.6021 86.2212 69.9031C87.4112 69.2041 88.4142 68.1931 88.6252 66.8301C91.0292 66.6961 93.4162 66.2541 95.7092 65.5191C95.6272 65.9211 95.5842 66.3331 95.5842 66.7461C95.1142 67.9411 94.8492 69.2761 94.7992 70.3511L96.1362 69.2451C96.2892 69.5631 96.4742 69.8671 96.6942 70.1471C96.9652 70.4931 97.2902 70.7971 97.6492 71.0531C96.5262 71.5611 95.4312 72.1371 94.3832 72.7831C92.7282 73.8051 91.1922 75.0011 89.8562 76.3781C88.6072 77.6661 87.5342 79.1111 86.7022 80.7171C84.0402 85.8561 84.4202 92.7801 88.5762 96.8071C89.2122 97.4221 89.9462 97.9751 90.8052 98.1891C92.8232 98.6901 95.4602 97.605 96.2262 95.6721C96.9922 93.7391 96.3032 93.0901 96.0912 91.0221C96.0002 89.2581 96.3272 88.0321 96.8972 87.0851C97.4512 86.1661 98.2322 85.5111 99.0852 84.8891C99.6572 84.4711 100.262 84.0671 100.85 83.6071C101.593 83.0251 102.381 82.5101 103.201 82.0461C104.005 81.5911 104.839 81.1851 105.69 80.8161C106.733 80.3631 107.803 79.9641 108.877 79.5941C110.984 78.8681 113.129 78.2421 115.295 77.6771C116.261 77.4261 117.231 77.1861 118.205 76.9561C131.187 73.8941 144.759 72.5281 156.043 65.5831C158.982 63.7741 161.743 61.5731 163.71 58.7371C167.26 53.6181 168.158 45.5781 165.416 39.9781ZM151.407 53.6311C150.114 54.883 148.72 56.0181 147.253 57.0511C147.556 56.4301 147.837 55.7991 148.107 55.1661C149.315 52.3261 150.691 49.3751 150.609 46.2901C150.525 43.0981 150.391 41.8921 149.981 40.2071C152.96 39.5991 155.673 42.7681 155.621 45.8081C155.567 48.8481 153.591 51.515 151.407 53.6311Z" fill="#4E4D4D"/>
<path d="M84.6542 5.18166e-05C83.2362 0.190052 82.2472 1.45805 81.4192 2.62505C78.4442 6.81305 75.4702 11.0011 72.4952 15.1891L72.4512 15.2101C71.1652 15.0951 69.8882 15.0051 68.6132 14.9321C67.9992 15.7421 67.2042 16.4491 66.6392 17.3031C65.9652 18.3241 65.6382 19.5271 65.1512 20.6491C64.4972 22.1561 63.5432 23.5321 62.3592 24.6711C63.2312 23.0271 63.8822 21.2671 64.2902 19.4511C64.5462 18.3141 64.7142 17.1341 65.2642 16.1071C65.5212 15.6281 65.8552 15.2001 66.2412 14.8191C65.4652 14.7901 64.6902 14.7691 63.9172 14.7551C62.9692 15.9481 61.7762 17.0321 61.3162 18.4741C60.9002 19.7731 61.1422 21.1901 60.9162 22.5361C60.5802 24.5231 59.2682 26.1851 58.0002 27.7511C58.0532 25.5121 59.1502 23.4221 59.4052 21.1971C59.5822 19.6551 59.3472 18.0861 59.5472 16.5461C59.6262 15.9351 59.8012 15.3121 60.0702 14.7501C59.3322 14.7601 58.5952 14.7771 57.8592 14.8001C57.2752 16.1401 56.2712 17.4081 56.2772 18.8671C56.2802 19.7691 56.6732 20.6171 56.9232 21.4831C57.1732 22.3501 57.2542 23.3621 56.7102 24.0821C56.3692 22.0841 55.4572 20.1861 54.1092 18.6721C53.1372 17.5791 51.8762 16.5301 51.5622 15.1541C50.2342 15.2611 48.9052 15.3861 47.5762 15.5321C47.6622 16.0891 47.8892 16.6391 48.1942 17.1151C49.5062 19.1621 52.0292 20.2131 53.2662 22.3051C54.2242 23.9251 54.2862 25.9731 55.3292 27.5391C54.2872 27.1401 53.5352 26.2191 52.9662 25.2601C52.3972 24.3011 51.9542 23.2601 51.2672 22.3811C49.2762 19.8361 45.4502 18.8971 44.1642 15.9461C43.0882 16.0891 42.0102 16.2431 40.9302 16.4091C41.1732 17.5681 41.8712 18.6661 42.7412 19.4981C44.0532 20.7531 45.7152 21.5631 47.2432 22.5441C48.1452 23.1231 49.0962 23.9321 49.0912 25.0051C47.7532 24.0681 46.2732 23.3341 44.7172 22.8351C43.9172 22.5791 43.0832 22.3771 42.3782 21.9221C41.3862 21.2801 40.7652 20.2141 40.1802 19.1881C39.7182 18.3761 39.2562 17.5631 38.7932 16.7521C38.1532 16.8591 37.5132 16.9681 36.8712 17.0821C34.5882 13.6901 32.5472 10.1391 30.2642 6.74705C29.4872 5.59305 28.7062 4.43405 27.7642 3.41105C27.4192 3.03605 26.9732 2.65306 26.4702 2.72606C25.7652 2.83006 25.5102 3.70106 25.4202 4.40806C24.6112 10.7421 24.6172 17.1211 24.9992 23.5001C25.3202 23.9371 25.7062 24.3241 26.1572 24.6311C28.0682 25.9331 30.8272 25.9541 32.2492 27.7771C30.6502 27.3201 28.9132 27.3641 27.3412 27.9021C26.6872 28.1261 26.0562 28.4331 25.3742 28.5521H25.3722C25.5342 30.4321 25.7192 32.3111 25.9152 34.1871C26.5272 35.0911 27.4252 35.8131 28.4902 35.9891C29.6362 36.1781 30.8992 35.7391 31.9282 36.2791C32.6782 36.6731 33.0892 37.4841 33.6162 38.1481C34.6262 39.4221 36.2012 40.2311 37.8252 40.3091C36.8222 40.7821 35.6222 40.8161 34.5932 40.4021C32.9992 39.7591 31.7722 38.1021 30.0532 38.1161C29.3072 38.1221 28.6082 38.4571 27.8812 38.6251C27.3992 38.7371 26.9002 38.7711 26.4062 38.7321C26.4492 39.1231 26.4932 39.5131 26.5362 39.9041C26.9182 43.3081 27.6942 47.5441 28.4322 50.8361C28.6702 51.9021 28.9522 52.9871 29.5732 53.8851C30.0952 54.6401 30.8192 55.2081 31.6292 55.6511C32.2642 55.9981 32.9502 56.2691 33.6342 56.493C37.4762 57.7561 41.6032 57.9131 45.6372 57.6351C47.9652 57.4751 50.3572 57.1431 52.4372 56.1351C52.5492 56.0801 52.6612 56.0261 52.7712 55.9671C53.0522 55.8191 53.3282 55.6581 53.5942 55.4811C53.7162 55.4011 53.8362 55.3141 53.9552 55.2251C53.9692 55.2151 53.9812 55.2051 53.9952 55.1951C54.1082 55.1091 54.2202 55.0191 54.3292 54.9261C54.3472 54.9111 54.3652 54.8961 54.3832 54.8801C54.4902 54.7871 54.5972 54.6911 54.7002 54.5921C54.7182 54.5751 54.7352 54.5581 54.7532 54.5411C54.8572 54.4401 54.9602 54.335 55.0602 54.2281C55.0732 54.2141 55.0852 54.2001 55.0982 54.1861C55.2022 54.0721 55.3052 53.9561 55.4042 53.8361C55.4062 53.8341 55.4082 53.8321 55.4102 53.8291C55.5102 53.7071 55.6072 53.5831 55.7012 53.4561C55.7082 53.4461 55.7162 53.4361 55.7222 53.4271C55.8132 53.3041 55.9002 53.1781 55.9842 53.0501C55.9952 53.0331 56.0062 53.0161 56.0172 52.9991C56.0982 52.8741 56.1762 52.7461 56.2512 52.6161C56.2612 52.597 56.2722 52.5791 56.2822 52.5601C56.3562 52.4291 56.4272 52.2961 56.4942 52.1621C56.5012 52.1471 56.5082 52.133 56.5152 52.118C56.5832 51.9781 56.6492 51.8361 56.7082 51.6931C56.7092 51.6911 56.7102 51.688 56.7112 51.6851C56.7732 51.5371 56.8292 51.3871 56.8802 51.2361C56.8812 51.2321 56.8822 51.2281 56.8842 51.2251C56.9332 51.0791 56.9762 50.9331 57.0152 50.7861C57.0192 50.7711 57.0232 50.757 57.0272 50.743C57.0632 50.6011 57.0932 50.4581 57.1202 50.3151C57.1232 50.2971 57.1272 50.2791 57.1302 50.2621C57.1542 50.1191 57.1742 49.9761 57.1882 49.8331C57.1892 49.8181 57.1902 49.8031 57.1912 49.7881C57.2042 49.6411 57.2122 49.4941 57.2122 49.3471C57.2122 49.3421 57.2122 49.3361 57.2122 49.3301C57.2122 49.1771 57.2052 49.0241 57.1912 48.8721C57.1992 48.8721 57.2072 48.8721 57.2142 48.8721C57.2592 49.1691 57.3032 49.4661 57.3572 49.7621C57.5272 50.7061 57.7602 51.6761 58.3502 52.4331C59.0912 53.3851 60.2852 53.8611 61.4492 54.1771C61.9452 54.3121 62.4452 54.4221 62.9472 54.5161C63.1432 54.5531 63.3402 54.5851 63.5372 54.6161C67.3262 55.2101 71.2592 54.7591 75.0722 54.1531C77.8582 53.7111 80.8872 53.0431 82.6242 50.8201C83.6712 49.4791 84.0822 47.7601 84.3912 46.0871C85.2172 41.6001 85.5002 37.0421 85.6122 32.4741C84.2222 34.1641 82.6012 35.5941 80.5412 36.2371C79.2212 36.6491 77.9502 37.5081 77.0182 38.1371C78.2252 36.6241 78.9372 34.5931 80.6442 33.6811C81.6262 33.1571 82.8392 33.0741 83.6902 32.3581C84.4292 31.7351 84.7122 30.8181 84.9182 29.8491C85.0602 29.1851 85.1642 28.4961 85.3552 27.8621C85.4432 27.5681 85.5572 27.2821 85.6882 27.0041C85.6902 26.7451 85.6922 26.4861 85.6942 26.2271C85.7002 25.3101 85.7072 24.3921 85.7142 23.4751C84.7432 24.1851 83.8932 25.0611 83.2262 26.0621C82.7462 26.7821 82.3512 27.5691 81.7472 28.1881C80.8602 29.0981 79.5402 29.5661 78.2772 29.4171C80.6582 28.3271 82.1202 25.9431 83.5962 23.7801C84.2262 22.8581 84.9302 21.9261 85.7292 21.1291C85.7452 18.9691 85.7602 16.8081 85.7752 14.6481C85.8022 9.73905 86.2702 -0.0259482 84.6542 5.18166e-05ZM33.7832 17.3611C33.6692 17.6171 33.3862 17.7471 33.1222 17.8451C32.0202 18.2521 30.8512 18.4771 29.6782 18.5071C29.2522 18.5181 28.7992 18.4961 28.4462 18.2591C27.9272 17.9121 27.7812 17.2261 27.6932 16.6081C27.2782 13.6751 27.1572 11.1221 27.4712 8.17705C27.4842 7.92905 27.6282 7.73805 27.8552 7.77305C28.0822 7.80905 28.2472 8.00005 28.3912 8.17805C30.4902 10.7681 32.6282 13.4281 33.7242 16.5761C33.8122 16.8301 33.8922 17.1151 33.7832 17.3611ZM43.2532 35.1361C43.1212 36.1431 42.9122 37.2821 42.0552 37.8271C40.9722 34.7651 40.9922 31.3261 42.1132 28.2781L42.1332 28.3021C42.8912 29.1601 43.3572 30.5721 43.4532 31.7131C43.5482 32.8541 43.4012 34.0001 43.2532 35.1361ZM71.1342 35.8631C70.0082 33.7001 69.5382 31.2021 69.8012 28.7781C69.9142 27.7321 70.1992 26.6311 70.9832 25.9281L71.0632 25.7861C72.7962 28.8381 72.8242 32.7881 71.1342 35.8631ZM83.6412 4.43406C83.5292 7.23006 83.3782 10.0511 83.2682 12.8481C83.2452 13.4261 83.1772 14.0891 82.7032 14.4191C82.4252 14.6121 82.0672 14.6421 81.7282 14.6541C80.7072 14.6921 79.6832 14.6361 78.6722 14.4901C78.3802 14.4481 78.0632 14.3831 77.8812 14.1521C77.6022 13.7981 77.7912 13.2831 77.9932 12.8801C79.5812 9.71806 81.4042 6.67406 83.4432 3.78306C83.6332 3.57206 83.6502 4.19406 83.6412 4.43406Z" fill="#9A9999"/>
<path d="M43.2532 35.1361C43.4002 34.0001 43.5482 32.8541 43.4522 31.7131C43.3552 30.5711 42.8892 29.1601 42.1322 28.3021L42.1122 28.2781C40.9922 31.3261 40.9712 34.7661 42.0542 37.8271C42.9132 37.2811 43.1222 36.1431 43.2532 35.1361Z" fill="#4E4D4D"/>
<path d="M71.0631 25.7871L70.9831 25.9291C70.2001 26.6321 69.9151 27.7331 69.8011 28.7791C69.5381 31.2031 70.0082 33.7011 71.1342 35.8641C72.8242 32.7881 72.7961 28.8381 71.0631 25.7871Z" fill="#4E4D4D"/>
<path d="M78.6722 14.4892C79.6832 14.6352 80.7072 14.6902 81.7282 14.6532C82.0672 14.6412 82.4242 14.6112 82.7032 14.4182C83.1782 14.0882 83.2452 13.4252 83.2682 12.8472C83.3782 10.0512 83.5292 7.23017 83.6412 4.43317C83.6502 4.19317 83.6332 3.57217 83.4442 3.78217C81.4052 6.67417 79.5822 9.71717 77.9942 12.8792C77.7922 13.2822 77.6022 13.7972 77.8822 14.1512C78.0632 14.3832 78.3802 14.4472 78.6722 14.4892Z" fill="#4E4D4D"/>
<path d="M28.3902 8.17815C28.2452 8.00015 28.0802 7.80915 27.8542 7.77315C27.6272 7.73715 27.4832 7.92915 27.4702 8.17715C27.1562 11.1221 27.2772 13.6761 27.6922 16.6081C27.7802 17.2261 27.9262 17.9122 28.4452 18.2592C28.7992 18.4962 29.2522 18.5182 29.6772 18.5072C30.8512 18.4772 32.0202 18.2521 33.1212 17.8451C33.3852 17.7471 33.6682 17.6171 33.7822 17.3611C33.8912 17.1151 33.8112 16.8302 33.7222 16.5762C32.6272 13.4272 30.4892 10.7681 28.3902 8.17815Z" fill="#4E4D4D"/>
<path d="M51.5612 15.1541C51.8742 16.5301 53.1362 17.5781 54.1082 18.6721C55.4562 20.1871 56.3682 22.084 56.7092 24.082C57.2532 23.362 57.1721 22.35 56.9221 21.483C56.6731 20.616 56.2792 19.7691 56.2762 18.8671C56.2702 17.4081 57.2742 16.14 57.8582 14.8C55.7552 14.866 53.6582 14.9851 51.5612 15.1541Z" fill="#E7E6E6"/>
<path d="M48.1932 17.115C47.8882 16.639 47.6612 16.089 47.5752 15.532C46.4382 15.657 45.3022 15.795 44.1632 15.947C45.4482 18.898 49.2742 19.837 51.2662 22.382C51.9542 23.261 52.3962 24.301 52.9652 25.261C53.5342 26.22 54.2862 27.141 55.3282 27.54C54.2852 25.974 54.2242 23.926 53.2652 22.306C52.0282 20.213 49.5042 19.162 48.1932 17.115Z" fill="#4E4D4D"/>
<path d="M60.0692 14.7492C59.7992 15.3122 59.6251 15.9352 59.5461 16.5452C59.3471 18.0852 59.5811 19.6542 59.4041 21.1962C59.1491 23.4212 58.0511 25.5112 57.9991 27.7502C59.2671 26.1842 60.5792 24.5222 60.9152 22.5352C61.1422 21.1902 60.8992 19.7732 61.3152 18.4732C61.7752 17.0322 62.9672 15.9472 63.9162 14.7542C62.6292 14.7322 61.3482 14.7312 60.0692 14.7492Z" fill="#4E4D4D"/>
<path d="M66.2401 14.8191C65.8541 15.2001 65.5202 15.6281 65.2632 16.1071C64.7132 17.1341 64.5452 18.3151 64.2892 19.4511C63.8822 21.2661 63.2302 23.0271 62.3582 24.6711C63.5422 23.5321 64.4961 22.1561 65.1501 20.6491C65.6371 19.5271 65.9642 18.3231 66.6382 17.3031C67.2022 16.4491 67.9972 15.7421 68.6122 14.9321C67.8202 14.8861 67.0291 14.8491 66.2401 14.8191Z" fill="#E7E6E6"/>
<path d="M47.2411 22.5461C45.7132 21.5651 44.0512 20.7551 42.7392 19.5001C41.8702 18.6681 41.1722 17.5691 40.9282 16.4111C40.2172 16.5211 39.5042 16.6351 38.7902 16.7541C39.2532 17.5661 39.7152 18.3781 40.1772 19.1901C40.7622 20.2161 41.3832 21.2831 42.3752 21.9241C43.0802 22.3801 43.9142 22.5811 44.7142 22.8371C46.2702 23.3361 47.7502 24.0701 49.0882 25.0071C49.0932 23.9341 48.1432 23.1251 47.2411 22.5461Z" fill="#E7E6E6"/>
<path d="M32.2472 27.779C30.8252 25.956 28.0662 25.9349 26.1552 24.6329C25.7042 24.3249 25.3182 23.938 24.9972 23.502C25.0982 25.187 25.2252 26.8709 25.3702 28.5539H25.3722C26.0542 28.4349 26.6852 28.127 27.3392 27.904C28.9112 27.365 30.6482 27.321 32.2472 27.779Z" fill="#4E4D4D"/>
<path d="M33.6142 38.149C33.0882 37.485 32.6762 36.674 31.9262 36.28C30.8972 35.74 29.6342 36.179 28.4882 35.99C27.4232 35.815 26.5252 35.092 25.9132 34.188C26.0712 35.704 26.2372 37.219 26.4042 38.731C26.8972 38.77 27.3962 38.736 27.8792 38.624C28.6062 38.456 29.3052 38.121 30.0512 38.115C31.7702 38.101 32.9972 39.759 34.5912 40.401C35.6202 40.816 36.8202 40.781 37.8232 40.308C36.1992 40.232 34.6242 39.423 33.6142 38.149Z" fill="#E7E6E6"/>
<path d="M64.6422 35.9311C64.2592 35.4681 63.9712 36.0061 63.4072 36.2541L63.3792 36.2701C61.6202 37.0111 59.6722 37.0661 57.7762 37.2921C50.0472 38.2151 47.8452 35.7371 47.6232 36.6551C47.4972 37.2631 48.0122 37.7981 48.4802 38.2051C50.7242 40.1571 52.9682 42.1081 55.2122 44.0591C55.4212 44.2401 55.6292 44.4211 55.8372 44.6021C56.1462 44.8701 56.4951 45.1511 56.9001 45.1521C56.9101 45.1521 56.9192 45.1541 56.9282 45.1541C56.9432 45.1541 56.9562 45.1501 56.9712 45.1491C57.3962 45.1151 57.7362 44.7781 58.0272 44.4601C58.9492 43.4541 59.8551 42.4351 60.7531 41.4081C61.9711 40.0141 63.1702 38.6031 64.3452 37.1721C64.6392 36.8151 64.9382 36.2891 64.6422 35.9311Z" fill="#4E4D4D"/>
<path d="M83.5882 23.7821C82.1112 25.9451 80.6502 28.3281 78.2692 29.4191C79.5322 29.5671 80.8522 29.0991 81.7392 28.1901C82.3432 27.5711 82.7372 26.7831 83.2182 26.0641C83.8852 25.0631 84.7361 24.1871 85.7061 23.4771C85.7111 22.6951 85.7172 21.9141 85.7222 21.1321C84.9222 21.9281 84.2182 22.8601 83.5882 23.7821Z" fill="#4E4D4D"/>
<path d="M84.9112 29.8501C84.7062 30.8191 84.4232 31.7361 83.6832 32.3591C82.8322 33.0751 81.6201 33.1581 80.6371 33.6821C78.9301 34.5941 78.2182 36.6241 77.0112 38.1381C77.9442 37.5091 79.2141 36.6501 80.5341 36.2381C82.5951 35.5951 84.2162 34.1651 85.6052 32.4751C85.6292 31.4701 85.6442 30.4631 85.6572 29.4581C85.6672 28.6401 85.6742 27.8221 85.6792 27.0051C85.5482 27.2831 85.4342 27.5691 85.3462 27.8631C85.1572 28.4981 85.0522 29.1861 84.9112 29.8501Z" fill="#E7E6E6"/>
<path d="M98.3271 29.93C98.0011 27.96 99.4402 25.7541 98.3852 24.0591C97.5392 22.7011 95.7312 22.6521 94.1252 22.2271C93.0392 23.0951 91.9672 23.983 90.9052 24.884C92.1122 25.088 93.2862 25.4921 94.3582 26.0851C94.7472 26.3001 95.1312 26.5481 95.3972 26.9051C96.3502 28.1911 95.3172 30.0281 95.6222 31.5981C96.0222 33.6621 98.4231 34.509 100.119 35.75C101.928 37.073 103.213 40.2721 103.415 42.5031C104.424 39.9631 103.916 36.884 102.144 34.802C100.784 33.204 98.6691 32.002 98.3271 29.93Z" fill="#E7E6E6"/>
<path d="M110.736 22.3909C110.491 20.5949 108.739 19.4559 107.161 18.5609C105.719 17.7429 104.275 16.9249 102.832 16.1069C100.991 17.2019 99.2142 18.3939 97.4852 19.6559C98.5342 20.5449 99.8192 21.2069 101.134 21.5939C103.049 22.1569 105.138 22.3019 106.822 23.3729C107.127 23.5669 107.426 23.8049 107.562 24.1399C107.708 24.5009 107.638 24.9079 107.605 25.2959C107.308 28.8099 110.212 32.0699 109.694 35.5579C110.52 33.5069 110.281 31.1469 110.216 28.9299C110.184 27.8459 110.067 26.7529 110.236 25.6809C110.412 24.5799 110.887 23.4969 110.736 22.3909Z" fill="#9A9999"/>
<path d="M116.729 13.435C116.583 12.501 116.733 11.545 116.642 10.605C114.235 11.083 111.866 11.814 109.572 12.74C109.773 13.653 110.213 14.53 110.823 15.236C112.122 16.741 114.036 17.584 115.961 18.081C117.396 18.452 119.152 18.907 119.522 20.342C119.625 20.74 119.593 21.159 119.562 21.569C119.311 24.858 119.06 28.146 118.81 31.434C119.369 29.636 120.226 27.941 120.79 26.145C121.355 24.349 121.615 22.368 120.962 20.602C119.99 17.975 117.16 16.202 116.729 13.435Z" fill="#E7E6E6"/>
<path d="M124.665 11.7559C124.551 11.1969 124.604 10.6109 124.645 10.0319C123.514 9.96194 122.384 9.95994 121.256 10.0199C121.259 10.2679 121.293 10.5149 121.361 10.7469C121.652 11.7389 122.357 12.5449 122.904 13.4219C123.93 15.0629 124.425 17.0319 124.295 18.9629C125.306 17.3429 125.922 15.3249 125.315 13.5149C125.116 12.9209 124.792 12.3689 124.665 11.7559Z" fill="#9A9999"/>
<path d="M131.534 12.066C131.366 13.475 131.68 14.89 131.876 16.295C132.072 17.7 132.133 19.198 131.506 20.471C131.157 21.179 130.617 21.771 130.135 22.396C128.72 24.228 127.766 26.413 127.385 28.696C128.445 25.947 131.949 24.706 132.902 21.918C133.391 20.484 133.105 18.878 133.565 17.435C134.052 15.91 135.32 14.7 136.301 13.414C134.82 12.604 133.265 11.929 131.662 11.397C131.604 11.618 131.56 11.842 131.534 12.066Z" fill="#E7E6E6"/>
<path d="M141.367 16.9571C140.924 16.5661 140.465 16.1931 139.998 15.8311C139.821 17.1861 140.075 18.6511 140.012 20.0451C139.916 22.1251 139.087 24.0911 138.271 26.0061C139.503 25.4601 140.462 24.3311 140.802 23.0271C141.013 22.2161 141.013 21.3111 141.508 20.6341C141.934 20.0511 142.644 19.7571 143.199 19.2961C143.299 19.2141 143.391 19.1251 143.48 19.0311C142.845 18.3331 142.145 17.6451 141.367 16.9571Z" fill="#9A9999"/>
<path d="M94.2852 81.877C92.9622 81.82 91.5952 81.877 90.3652 81.387C90.7482 82.389 91.6522 83.096 92.5862 83.624C93.5192 84.153 94.5282 84.562 95.3662 85.233C96.0092 85.749 96.5072 86.383 96.8942 87.09C97.4482 86.171 98.2292 85.516 99.0822 84.894C98.8682 84.192 98.5282 83.547 97.9912 83.051C97.0182 82.154 95.6082 81.934 94.2852 81.877Z" fill="#E7E6E6"/>
<path d="M97.8372 79.4611C97.8812 78.3831 97.3742 77.3691 96.8812 76.4091C96.3052 75.2891 95.7182 74.1541 94.8562 73.2371C94.7082 73.0791 94.5482 72.9281 94.3812 72.7861C92.7262 73.8081 91.1902 75.0041 89.8542 76.3811C91.1182 76.3131 92.4092 76.7991 93.6102 77.2801C95.0882 77.8711 96.5882 78.4751 97.8372 79.4611Z" fill="#9A9999"/>
<path d="M104.777 77.7601C104.682 77.1991 104.666 76.621 104.497 76.077C104.073 74.714 102.608 73.758 101.19 73.919C102.165 74.835 103.198 75.863 103.363 77.19C103.492 78.233 103.051 79.262 103 80.312C102.972 80.893 103.061 81.4731 103.198 82.0511C104.002 81.5961 104.836 81.19 105.687 80.821C105.675 80.779 105.666 80.735 105.654 80.693C105.376 79.709 104.95 78.7661 104.777 77.7601Z" fill="#E7E6E6"/>
<path d="M109.278 69.95C108.912 69.265 108.431 68.649 107.9 68.071C107.093 68.217 106.29 68.3761 105.491 68.5511C105.898 68.7671 106.277 69.035 106.608 69.358C106.924 69.665 107.192 70.0061 107.425 70.3701C108.272 71.6881 108.64 73.326 108.965 74.888C110.093 73.759 110.14 71.878 109.505 70.414C109.437 70.255 109.359 70.102 109.278 69.95Z" fill="#9A9999"/>
<path d="M114.722 70.105C115.686 70.716 116.03 71.934 116.299 73.043C116.462 73.714 116.626 74.404 116.53 75.087C116.455 75.626 116.221 76.13 115.957 76.606C115.753 76.972 115.527 77.329 115.291 77.682C116.257 77.431 117.227 77.191 118.201 76.961C118.427 76.073 118.58 75.159 118.474 74.252C118.243 72.276 116.665 70.532 114.722 70.105Z" fill="#9A9999"/>
<path d="M120.887 67.317C120.857 66.949 120.805 66.583 120.736 66.219C120.251 66.293 119.766 66.365 119.28 66.435C119.446 66.799 119.559 67.2 119.63 67.602C119.669 67.829 119.696 68.057 119.708 68.278C119.774 69.478 119.629 70.69 119.279 71.839C120.374 70.989 120.88 69.549 120.917 68.164C120.924 67.881 120.911 67.598 120.887 67.317Z" fill="#E7E6E6"/>
<path d="M53.9532 55.2251C53.9672 55.2151 53.9792 55.2051 53.9932 55.1951C53.9792 55.2051 53.9662 55.2151 53.9532 55.2251Z" fill="#4E4D4D"/>
<path d="M45.6872 46.1472C37.5482 45.1252 29.4492 43.8032 21.4072 42.1922C20.9732 42.1052 20.7882 42.7692 21.2232 42.8572C29.3272 44.4812 37.4872 45.8062 45.6872 46.8362C46.1262 46.8912 46.1222 46.2022 45.6872 46.1472Z" fill="#4E4D4D"/>
<path d="M41.8432 49.4341C42.2862 49.4531 42.2852 48.7641 41.8432 48.7451C36.1252 48.5071 30.4082 48.2691 24.6912 48.0321C24.2482 48.0131 24.2492 48.7021 24.6912 48.7211C30.4092 48.9591 36.1262 49.1971 41.8432 49.4341Z" fill="#4E4D4D"/>
<path d="M44.6712 50.286C38.0852 51.761 31.5002 53.236 24.9142 54.71C24.4812 54.807 24.6652 55.471 25.0972 55.375C31.6832 53.9 38.2692 52.425 44.8542 50.95C45.2872 50.853 45.1042 50.189 44.6712 50.286Z" fill="#4E4D4D"/>
<path d="M86.7792 38.6301C80.1412 41.0761 73.3922 43.2121 66.5552 45.0291C66.1272 45.1431 66.3092 45.8071 66.7392 45.6941C73.5762 43.8771 80.3252 41.7411 86.9622 39.2951C87.3752 39.1421 87.1962 38.4761 86.7792 38.6301Z" fill="#4E4D4D"/>
<path d="M86.8582 44.5202C81.8742 45.0812 76.8702 45.4492 71.8572 45.6242C71.4152 45.6402 71.4132 46.3292 71.8572 46.3132C76.8702 46.1382 81.8742 45.7702 86.8582 45.2102C87.2932 45.1602 87.2982 44.4702 86.8582 44.5202Z" fill="#4E4D4D"/>
<path d="M86.9542 51.0272C80.6782 50.0442 74.4012 49.0611 68.1262 48.0771C67.6922 48.0091 67.5052 48.6732 67.9422 48.7422C74.2182 49.7252 80.4942 50.7082 86.7702 51.6922C87.2042 51.7592 87.3912 51.0952 86.9542 51.0272Z" fill="#4E4D4D"/>
<path d="M62.9422 54.5182C62.4402 54.4242 61.9402 54.3142 61.4442 54.1792C61.2912 54.1372 61.1372 54.0932 60.9852 54.0452C59.9702 54.7392 58.4882 55.1782 56.8352 55.1782C55.9702 55.1782 55.1512 55.0582 54.4222 54.8442C54.4082 54.8562 54.3952 54.8692 54.3812 54.8812C54.3632 54.8972 54.3452 54.9122 54.3272 54.9272C54.2182 55.0202 54.1062 55.1102 53.9932 55.1962C53.9792 55.2062 53.9672 55.2162 53.9532 55.2262C53.8342 55.3152 53.7142 55.4022 53.5922 55.4822C53.3252 55.6592 53.0502 55.8202 52.7692 55.9682C52.6592 56.0272 52.5472 56.0812 52.4352 56.1362C54.2242 56.4092 56.0352 56.6032 57.8352 56.4472C59.6482 56.2892 61.9952 55.6922 63.5322 54.6192C63.3352 54.5872 63.1382 54.5552 62.9422 54.5182Z" fill="#E7E6E6"/>
<path d="M60.9852 54.045C59.9742 53.729 58.9892 53.262 58.3452 52.435C57.7552 51.678 57.5222 50.708 57.3522 49.764C57.2982 49.468 57.2542 49.171 57.2092 48.874C57.2012 48.874 57.1932 48.874 57.1862 48.874C57.2012 49.026 57.2072 49.178 57.2072 49.332C57.2072 49.338 57.2072 49.343 57.2072 49.349C57.2072 49.495 57.1992 49.642 57.1862 49.79C57.1852 49.805 57.1842 49.82 57.1832 49.835C57.1692 49.978 57.1502 50.121 57.1252 50.264C57.1222 50.282 57.1182 50.299 57.1152 50.317C57.0892 50.46 57.0582 50.603 57.0222 50.745C57.0182 50.76 57.0142 50.774 57.0102 50.788C56.9712 50.935 56.9282 51.081 56.8792 51.227C56.8772 51.23 56.8762 51.234 56.8752 51.238C56.8242 51.388 56.7682 51.538 56.7062 51.687C56.7052 51.689 56.7042 51.692 56.7032 51.695C56.6432 51.838 56.5782 51.98 56.5102 52.12C56.5032 52.135 56.4962 52.149 56.4892 52.164C56.4222 52.299 56.3512 52.432 56.2772 52.562C56.2662 52.581 56.2562 52.599 56.2462 52.618C56.1712 52.747 56.0932 52.875 56.0122 53.001C56.0012 53.018 55.9902 53.035 55.9792 53.052C55.8952 53.18 55.8082 53.306 55.7172 53.429C55.7102 53.439 55.7022 53.448 55.6962 53.458C55.6022 53.584 55.5052 53.709 55.4052 53.831C55.4032 53.833 55.4012 53.836 55.3992 53.838C55.3002 53.958 55.1982 54.074 55.0932 54.188C55.0802 54.201 55.0682 54.215 55.0552 54.23C54.9552 54.337 54.8522 54.441 54.7482 54.543C54.7302 54.56 54.7132 54.577 54.6952 54.594C54.6042 54.68 54.5112 54.763 54.4192 54.845C55.1482 55.059 55.9672 55.179 56.8322 55.179C58.4882 55.177 59.9702 54.739 60.9852 54.045Z" fill="#4E4D4D"/>
</svg>
