<svg width="158" height="121" viewBox="0 0 158 121" fill="none" xmlns="http://www.w3.org/2000/svg">
<path d="M157.555 92.5944C156.547 90.0194 154.069 88.1563 153.377 85.4793C152.854 83.4523 153.47 81.2703 154.549 79.4753C155.461 77.9584 156.732 76.5483 156.941 74.7913C157.26 72.1053 154.919 69.7744 152.411 68.7604C149.165 67.4484 145.351 67.6204 142.236 69.2194C141.85 69.4174 141.481 69.6403 141.118 69.8733C141.404 69.3193 141.655 68.7483 141.854 68.1553C142.645 65.8023 142.657 63.2584 142.444 60.7854C141.65 51.5424 137.874 42.7964 133.251 34.7544C128.627 26.7124 123.122 19.2053 118.431 11.2033C116.031 7.11035 113.49 2.57135 109.051 0.89535C104.4 -0.86065 98.863 1.39335 95.937 5.42035C92.124 2.34135 87.55 0.519352 82.648 0.100352C77.53 -0.337648 72.35 0.681349 67.618 2.70335C66.887 3.01635 66.166 3.35035 65.458 3.70935C63.942 4.47735 62.472 5.35535 61.156 6.42435C60.811 6.70435 60.475 6.99335 60.154 7.30135C59.341 8.08135 58.623 8.94635 57.97 9.86235C57.507 7.17435 55.94 4.69835 53.385 3.93035C52.025 3.52135 50.548 3.64135 49.184 4.03535C46.026 4.94735 43.461 7.22135 41.126 9.53535C29.349 21.2104 20.48 35.5554 13.529 50.6114C11.146 55.7734 8.96702 61.0554 7.55102 66.5624C6.18602 71.8714 5.64801 77.8874 8.61201 82.4994C8.97601 83.0654 9.38601 83.5943 9.83101 84.0933C9.18501 84.2623 8.54801 84.5013 7.95001 84.7673C4.80701 86.1653 1.83001 88.3933 0.551012 91.5873C-0.727988 94.7803 0.238013 99.0094 3.29901 100.579C4.80401 101.351 6.97501 101.837 7.09701 103.523C7.17401 104.598 6.28301 105.456 5.60201 106.291C3.72501 108.596 3.14801 111.909 4.18801 114.694C5.22701 117.479 7.86401 119.616 10.812 120.003C13.223 120.319 15.701 119.51 17.67 118.084C19.64 116.658 21.136 114.655 22.26 112.499C23.585 109.958 24.547 107.031 26.871 105.354C27.465 104.926 28.113 104.608 28.795 104.366C29.12 104.741 29.478 105.087 29.879 105.394C31.594 106.705 33.929 107.164 36.013 106.599C38.096 106.034 39.88 104.458 40.697 102.46C41.373 104.837 43.823 106.58 46.291 106.439C48.759 106.297 50.993 104.287 51.394 101.848C52.557 104.722 56.071 106.245 59.097 105.566C61.63 104.998 63.722 103.117 64.921 100.796C75.01 100.53 85.092 100.014 95.154 99.2454C95.886 100.506 96.818 101.646 98.048 102.409C100.033 103.64 102.637 103.714 104.775 102.773C106.914 101.832 108.575 99.9503 109.437 97.7794C109.8 100.568 112.292 102.929 115.097 103.143C117.902 103.356 120.722 101.398 121.503 98.6963C122.193 100.917 125.144 101.818 127.286 100.911C129.025 100.175 130.244 98.5953 130.993 96.8323C132.562 96.7423 134.146 96.8824 135.672 97.2624C138.943 98.0764 141.854 99.9173 144.999 101.127C148.145 102.336 151.885 102.846 154.745 101.065C157.484 99.3593 158.731 95.5993 157.555 92.5944Z" fill="#C7B29A"/>
<path d="M115.805 57.4593C114.66 53.8653 111.912 51.0453 109.246 48.3763C106.101 45.2293 102.858 42.0323 98.826 40.1533C96.112 38.8883 93.147 38.2743 90.199 37.7563C86.113 37.0383 81.954 36.4843 77.821 36.8503C77.362 36.8913 76.905 36.9463 76.449 37.0093C71.96 37.6243 67.644 39.2543 63.535 41.1893C62.086 41.8723 60.658 42.5983 59.249 43.3573C56.092 45.0593 53.038 46.9513 50.108 49.0213C49.87 49.1903 49.628 49.3553 49.39 49.5263C47.228 51.0873 45.074 52.8163 43.826 55.1733C43.678 55.4543 43.548 55.7443 43.426 56.0373C42.865 57.3853 42.567 58.8403 42.367 60.2913C41.747 64.7873 41.971 69.3974 43.022 73.8124C43.038 73.8773 43.055 73.9433 43.071 74.0093C43.49 75.7103 44.092 77.4383 45.369 78.6303C46.098 79.3123 47.004 79.7743 47.923 80.1633C53.637 82.5813 60.108 82.4174 66.253 81.5644C67.472 81.3954 68.705 81.1923 69.908 80.9013C70.91 80.6593 71.89 80.3553 72.826 79.9583C73.746 79.5683 74.623 79.0873 75.43 78.4853C77.269 77.1163 78.884 74.9503 79.289 72.7233C80.129 74.8943 82.05 76.8763 83.942 78.1023C84.872 78.7053 85.876 79.1603 86.922 79.5033C87.319 79.6333 87.724 79.7493 88.132 79.8483C89.821 80.2593 91.59 80.4193 93.329 80.4423C96.823 80.4873 100.323 80.0343 103.69 79.0993C105.919 78.4803 108.139 77.6223 109.892 76.1123C111.031 75.1313 111.93 73.9083 112.72 72.6253C112.853 72.4083 112.985 72.1903 113.113 71.9703C115.666 67.5923 117.343 62.2893 115.805 57.4593Z" fill="#DDD1C2"/>
<path d="M118.109 77.9783C115.909 76.6603 114.202 74.7453 112.723 72.6263C111.933 73.9093 111.034 75.1323 109.895 76.1133C108.142 77.6233 105.922 78.4813 103.693 79.1003C100.326 80.0353 96.826 80.4883 93.332 80.4433C91.593 80.4213 89.824 80.2603 88.135 79.8493C87.707 81.3623 86.771 82.8043 85.647 84.0633C88.727 83.9723 91.808 83.8623 94.886 83.7273C95.329 83.0923 95.838 82.5043 96.418 81.9843C100.128 79.5263 113.418 79.0563 122.379 80.1683C123.54 80.3123 124.653 80.6223 125.701 81.0803C126.867 80.6013 127.999 80.0243 129.097 79.3723C129.024 79.3913 128.951 79.4133 128.876 79.4313C125.266 80.3033 121.296 79.8863 118.109 77.9783Z" fill="#958574"/>
<path d="M69.909 80.9023C68.706 81.1933 67.472 81.3953 66.254 81.5653C60.108 82.4183 53.638 82.5823 47.924 80.1643C47.005 79.7753 46.099 79.3123 45.37 78.6313C44.094 77.4403 43.491 75.7123 43.072 74.0103C40.954 77.5713 38.391 80.8673 35.465 83.8003C37.314 83.2923 39.25 83.0203 41.157 82.8353C45.052 82.4573 48.973 82.3683 52.882 82.5703C55.558 82.7083 58.407 83.0783 60.716 84.3123C64.53 84.3483 68.344 84.3493 72.158 84.3163C71.124 83.3293 70.249 82.1943 69.909 80.9023Z" fill="#958574"/>
<path d="M53.034 68.2673C53.661 68.0383 54.071 67.3593 54.049 66.6923C54.027 66.0253 53.688 65.1193 52.425 65.0183C51.035 65.3723 50.943 66.6833 51.345 67.5923C51.614 68.2023 52.406 68.4963 53.034 68.2673Z" fill="#4E4D4D"/>
<path d="M63.749 57.5213C66.86 60.6833 71.116 62.6723 75.529 63.1213C79.942 63.5703 84.483 62.4914 88.27 60.1814C90.195 59.0074 91.968 57.4784 93.034 55.4914C94.099 53.5044 94.37 51.0074 93.363 48.9904C92.356 46.9724 91.098 46.1304 88.8 45.8624C81.676 45.2374 74.435 45.9753 67.584 48.0253C66.211 48.4363 64.826 48.9133 63.682 49.7753C62.538 50.6373 61.653 51.9533 61.635 53.3863C61.616 54.9753 62.634 56.3874 63.749 57.5213Z" fill="#4E4D4D"/>
<path d="M93.825 28.3003C94.226 28.9533 94.828 29.6483 95.591 29.5723C96.493 29.4833 96.907 28.4173 97.069 27.5253C97.729 23.8743 97.297 19.7403 94.717 17.0733L94.476 16.8853C93.865 16.3343 92.373 16.6163 91.898 17.2893C91.423 17.9613 91.378 18.8403 91.401 19.6633C91.479 22.6873 92.242 25.7223 93.825 28.3003Z" fill="#4E4D4D"/>
<path d="M82.053 19.5593C82.157 15.0943 81.206 10.3573 78.164 7.08733C75.479 4.20033 71.617 2.92533 67.616 2.70233C66.885 3.01533 66.164 3.34934 65.456 3.70834C63.94 4.47634 62.47 5.35433 61.154 6.42333C60.809 6.70333 60.473 6.99233 60.152 7.30033C59.339 8.08033 58.621 8.94534 57.968 9.86134C56.847 11.4363 55.922 13.1673 55.059 14.9023C48.675 27.7313 44.829 41.7763 43.425 56.0373C43.547 55.7443 43.677 55.4543 43.825 55.1733C45.073 52.8163 47.227 51.0863 49.389 49.5263C49.626 49.3553 49.868 49.1903 50.107 49.0213C53.037 46.9513 56.09 45.0593 59.248 43.3573C60.657 42.5973 62.085 41.8713 63.534 41.1893C67.643 39.2533 71.959 37.6243 76.448 37.0093C77.165 36.0093 77.804 34.9473 78.371 33.8603C80.667 29.4573 81.937 24.5233 82.053 19.5593Z" fill="#958574"/>
<path d="M63.595 28.0793C63.718 28.9773 64.087 30.0593 64.985 30.1873C65.744 30.2943 66.374 29.6263 66.802 28.9903C68.492 26.4823 69.383 23.4813 69.59 20.4643C69.647 19.6433 69.64 18.7633 69.194 18.0713C68.748 17.3803 67.27 17.0343 66.635 17.5583L66.386 17.7353C63.697 20.2913 63.09 24.4033 63.595 28.0793Z" fill="#4E4D4D"/>
<path d="M53.245 61.0083C53.708 61.7083 54.788 61.6443 55.517 61.2283C56.279 60.7933 56.894 59.9843 56.836 59.1083C56.778 58.2333 55.838 57.4473 55.016 57.7553L54.941 57.7743C53.746 58.3093 52.94 59.0803 53.011 60.2003C53.029 60.4823 53.088 60.7713 53.245 61.0083Z" fill="#4E4D4D"/>
<path d="M60.59 65.6333C61.316 65.3313 61.539 64.2323 60.987 63.6733L60.943 63.6493C59.929 62.8653 58.892 63.7533 58.91 64.5403C58.929 65.3243 59.865 65.9353 60.59 65.6333Z" fill="#4E4D4D"/>
<path d="M97.288 57.8513C97.789 58.2953 98.534 58.5573 99.136 58.2633C99.794 57.9413 100.01 57.0033 99.643 56.3693C99.275 55.7353 98.658 55.1433 97.436 55.4093C96.932 55.4923 96.585 56.0243 96.596 56.5343C96.607 57.0443 96.907 57.5123 97.288 57.8513Z" fill="#4E4D4D"/>
<path d="M91.67 64.5063C91.994 65.3433 93.287 65.5733 93.88 64.8993C94.473 64.2253 93.912 62.9413 93.04 62.7293C92.148 62.6283 91.346 63.6693 91.67 64.5063Z" fill="#4E4D4D"/>
<path d="M102.91 62.7843C103.319 62.1783 103.061 60.9093 102.008 60.9403C101.287 61.0693 100.788 61.9503 101.105 62.6103C101.421 63.2693 102.5 63.3903 102.91 62.7843Z" fill="#4E4D4D"/>
<path d="M27.097 90.0943C26.424 90.3643 25.729 90.5723 25.007 90.6913C21.887 91.2073 18.735 90.0393 15.932 88.5733C13.686 87.3993 11.504 85.9703 9.83002 84.0933C9.18402 84.2623 8.54701 84.5013 7.94901 84.7673C4.80601 86.1653 1.82901 88.3933 0.550012 91.5873C-0.728988 94.7803 0.237013 99.0093 3.29801 100.579C4.80301 101.351 6.97401 101.837 7.09601 103.523C7.17301 104.598 6.28201 105.456 5.60101 106.291C3.72401 108.596 3.14701 111.909 4.18701 114.694C5.22601 117.479 7.86301 119.616 10.811 120.003C13.222 120.319 15.7 119.51 17.669 118.084C19.639 116.658 21.135 114.655 22.259 112.499C23.584 109.958 24.546 107.031 26.87 105.354C27.464 104.926 28.112 104.608 28.794 104.366C27.215 102.546 26.493 100.012 26.266 97.5693C26.05 94.2023 26.368 91.8563 27.097 90.0943Z" fill="#CDCCCC"/>
<path d="M157.555 92.5943C156.547 90.0193 154.069 88.1563 153.377 85.4793C152.854 83.4523 153.47 81.2703 154.549 79.4753C155.461 77.9583 156.732 76.5483 156.941 74.7913C157.26 72.1053 154.919 69.7743 152.411 68.7603C149.165 67.4483 145.351 67.6203 142.236 69.2193C141.85 69.4173 141.481 69.6403 141.118 69.8733C140.384 71.2973 139.395 72.5963 138.291 73.7633C135.79 76.4053 132.618 78.4693 129.097 79.3723C127.999 80.0243 126.868 80.6023 125.701 81.0803C126.836 81.5763 127.892 82.2473 128.842 83.0863C130.051 84.1563 130.834 85.6373 131.331 87.1733C132.207 89.8823 132.244 92.8573 131.437 95.5883C131.313 96.0063 131.165 96.4243 130.992 96.8313C132.561 96.7413 134.145 96.8813 135.671 97.2613C138.942 98.0753 141.853 99.9163 144.998 101.126C148.144 102.335 151.884 102.845 154.744 101.064C157.484 99.3593 158.731 95.5993 157.555 92.5943Z" fill="#CDCCCC"/>
<path d="M92.826 89.5423C93.007 87.4723 93.702 85.4253 94.886 83.7283C91.808 83.8633 88.727 83.9733 85.647 84.0643C85.362 84.3833 85.066 84.6923 84.761 84.9873C82.974 86.7173 80.746 88.3263 78.283 87.9803C76.553 87.7373 75.054 86.6873 73.675 85.6133C73.161 85.2133 72.643 84.7803 72.158 84.3173C68.344 84.3493 64.53 84.3483 60.716 84.3133C61.607 84.7893 62.419 85.3893 63.107 86.1613C64.145 87.3253 64.808 88.7783 65.288 90.2623C66.242 93.2133 66.514 96.4673 65.518 99.4033C65.356 99.8813 65.154 100.347 64.92 100.798C75.009 100.532 85.091 100.016 95.153 99.2473C94.89 98.7973 94.652 98.3313 94.436 97.8613C93.245 95.2643 92.577 92.3873 92.826 89.5423Z" fill="#CDCCCC"/>
<path d="M86.924 79.5043C85.877 79.1613 84.873 78.7063 83.944 78.1033C82.051 76.8773 80.131 74.8953 79.291 72.7243C78.886 74.9523 77.27 77.1173 75.432 78.4863C74.624 79.0883 73.747 79.5693 72.828 79.9593C71.892 80.3563 70.912 80.6603 69.91 80.9023C70.251 82.1943 71.126 83.3293 72.159 84.3173C72.643 84.7803 73.162 85.2133 73.676 85.6133C75.055 86.6873 76.554 87.7373 78.284 87.9803C80.747 88.3263 82.974 86.7173 84.762 84.9873C85.067 84.6933 85.363 84.3833 85.648 84.0643C86.772 82.8053 87.709 81.3633 88.136 79.8503C87.726 79.7503 87.322 79.6353 86.924 79.5043Z" fill="#E62747"/>
</svg>
