<svg width="135" height="184" viewBox="0 0 135 184" fill="none" xmlns="http://www.w3.org/2000/svg">
<path d="M134.372 104.774C134.302 101.332 133.985 97.666 131.894 94.93C131.367 94.239 130.551 93.573 129.714 93.809C128.847 94.054 128.521 95.088 128.335 95.97C125.69 108.54 123.767 121.711 116.712 132.447C114.843 135.293 111.325 138.858 107.173 140.103C107.039 138.971 106.828 137.859 106.513 136.781C105.733 121.477 105.325 106.128 103.808 90.881C104.198 90.735 104.588 90.592 104.977 90.442C105.213 90.351 105.463 90.248 105.606 90.039C105.785 89.779 105.747 89.433 105.701 89.121C105.31 86.46 105.34 81.97 105.267 79.29L105.195 79.338C104.662 79.525 104.131 79.705 103.598 79.886C102.952 67.831 102.308 55.777 101.662 43.722L101.645 43.446C105.41 36.505 108.852 28.316 111.485 20.399C112.282 18.005 113.006 15.634 113.64 13.332C109.53 14.539 106.014 17.179 102.599 19.767C99.9598 21.767 97.3218 23.767 94.6818 25.767L94.4748 25.901C89.3698 24.263 84.2648 22.625 79.1608 20.987C78.7348 20.851 78.2858 20.698 78.0018 20.354C77.9688 20.313 77.9388 20.271 77.9108 20.227C77.7108 19.91 77.6508 19.515 77.5978 19.139C76.6628 12.597 74.9808 6.162 72.5948 0C72.1558 0.87 71.7258 1.744 71.3018 2.621C68.1788 9.1 65.4978 15.793 63.2888 22.639C62.3988 25.273 61.2288 26.219 60.1848 26.463C46.5278 29.664 32.3858 30.443 18.5538 32.67C13.4278 33.495 8.34376 34.518 3.34276 35.938C2.69576 36.122 2.03676 36.318 1.48776 36.706C-0.52924 38.129 -0.145243 41.195 0.604757 43.547C2.17676 48.475 4.42376 53.211 7.34576 57.471C8.86976 59.693 10.5748 61.788 12.4708 63.709C17.9988 69.31 25.1528 73.399 32.8968 74.801C32.8948 74.819 32.8928 74.838 32.8908 74.856C32.8448 75.192 32.8478 75.226 32.8548 75.342C32.8458 75.663 32.8678 75.984 32.9218 76.3C33.1368 77.537 33.8208 78.698 34.8368 79.441C36.2588 80.482 38.2648 80.659 39.8478 79.885C39.9498 81.481 40.0498 83.077 40.1518 84.673L40.2148 85.284C39.7248 85.195 39.2358 85.107 38.7448 85.011C38.4498 87.699 38.3348 90.814 38.3398 93.692C35.5188 94.22 32.9748 96.23 31.9318 98.919C30.9118 101.547 31.3878 104.666 33.0238 106.945C29.0198 122.322 25.6838 137.874 23.0318 153.542C22.9388 154.088 22.8358 154.663 22.4798 155.087C21.9298 155.746 20.9708 155.842 20.2088 156.235C19.3528 156.678 18.8168 157.49 18.5798 158.418C18.3088 159.48 18.4288 160.693 18.9248 161.681C19.8548 163.53 21.6958 164.727 23.5158 165.71C24.4268 166.202 25.4528 166.676 26.4598 166.442C28.1968 166.04 29.3798 164.663 30.9478 163.745C29.7128 164.617 29.4948 166.488 30.1908 167.829C30.8868 169.171 32.2838 170.026 33.7278 170.471C35.4958 171.016 37.9978 171.165 39.6618 170.359C41.3268 169.553 42.8488 167.8 43.4758 165.918C46.0928 165.874 48.3878 165.997 50.9478 166.271C49.4698 166.886 48.0098 167.562 46.5638 168.308C45.2828 168.852 43.9658 169.421 42.9888 170.413C42.0118 171.406 41.4488 172.939 41.9878 174.224C42.3328 175.046 43.0718 175.649 43.8778 176.032C45.6678 176.885 47.8948 176.745 49.5648 175.675C48.9418 177.436 50.5527 179.348 52.3758 179.761C54.1988 180.174 56.0768 179.543 57.8388 178.92C56.6308 180.175 57.6558 182.463 59.2768 183.103C60.8968 183.743 62.7188 183.27 64.3948 182.792C74.8738 179.805 85.1988 176.834 95.4408 173.399C99.3638 172.084 103.274 170.703 107.176 169.225L107.185 169.165C107.246 167.963 107.281 166.841 107.294 165.76C110.164 163.968 114.202 160.739 116.318 158.441C129.42 144.211 134.764 124.115 134.372 104.774Z" fill="#CDCCCC"/>
<path d="M15.9288 46.522C18.1578 42.278 19.5718 37.272 18.5548 32.668C13.4288 33.493 8.34476 34.516 3.34376 35.936C2.69676 36.12 2.03777 36.316 1.48877 36.704C-0.528233 38.127 -0.144236 41.193 0.605764 43.545C2.17776 48.473 4.42477 53.209 7.34677 57.469C10.8328 54.374 13.7618 50.65 15.9288 46.522Z" fill="#4E4D4D"/>
<path d="M45.3098 96.934C45.1518 96.713 44.9888 96.498 44.8208 96.291C43.5558 94.727 42.0188 93.607 39.9648 93.551C39.5598 93.542 39.1558 93.567 38.7558 93.621C38.6168 93.64 38.4788 93.665 38.3408 93.691C35.5198 94.219 32.9758 96.229 31.9328 98.918C30.9128 101.546 31.3888 104.665 33.0248 106.944C33.3788 107.438 33.7868 107.894 34.2468 108.296C35.2628 109.181 36.5338 109.828 37.8798 109.887C39.5248 109.96 41.4678 109.259 42.7528 108.23C44.2358 107.042 45.2818 105.556 45.8428 103.74C46.5288 101.517 46.6658 98.827 45.3098 96.934Z" fill="#E7E6E6"/>
<path d="M105.701 89.121C105.31 86.46 105.34 81.97 105.267 79.29L105.195 79.338C104.662 79.525 104.131 79.705 103.598 79.886C82.8767 86.907 62.3618 89.321 40.2148 85.283C39.7248 85.194 39.2358 85.106 38.7448 85.01C38.4498 87.698 38.3348 90.813 38.3398 93.691C38.4778 93.666 38.6158 93.64 38.7548 93.621C39.1548 93.567 39.5588 93.542 39.9638 93.551C42.0188 93.607 43.5558 94.727 44.8198 96.291C64.6748 99.79 84.8107 97.993 103.807 90.88C104.197 90.734 104.587 90.591 104.976 90.441C105.212 90.35 105.462 90.247 105.605 90.038C105.785 89.778 105.747 89.433 105.701 89.121Z" fill="#E52521"/>
<path d="M64.7048 31.341C62.9098 32.406 61.1788 33.809 60.0518 35.567C59.5728 36.315 59.1568 37.244 59.4918 38.067C59.8058 38.838 60.7178 39.238 61.5478 39.177C62.3778 39.116 63.1358 38.685 63.8098 38.196C64.7198 37.536 65.5388 36.751 66.2368 35.87C66.9158 35.012 67.5028 33.969 67.3728 32.883C67.2428 31.797 66.0908 30.808 65.0748 31.214L64.7048 31.341Z" fill="#4E4D4D"/>
<path d="M74.3858 37.617C72.1158 38.676 70.2117 40.498 69.0527 42.719C68.5437 43.694 68.2278 45.017 69.0068 45.792C69.4958 46.278 70.2837 46.358 70.9427 46.153C71.6017 45.948 72.1557 45.503 72.6687 45.042C73.7977 44.028 74.8118 42.888 75.6878 41.649C76.0858 41.086 76.4658 40.47 76.5168 39.782C76.5668 39.094 76.4598 37.268 74.5168 37.606L74.3858 37.617Z" fill="#4E4D4D"/>
<path d="M44.0068 71.156C47.9398 68.629 50.8478 65.551 50.7588 60.653C50.7408 59.722 49.2938 59.719 49.3108 60.653C49.3928 65.218 46.1528 68.827 42.4678 71.088C40.9028 72.049 39.2478 72.83 37.5298 73.477C36.0478 74.035 34.4738 74.621 32.8918 74.854C32.8268 75.334 32.8618 75.192 32.8618 75.566C34.6398 75.311 36.6048 74.69 38.2618 74.124C40.3138 73.424 42.2748 72.268 44.0068 71.156Z" fill="#4E4D4D"/>
<path d="M40.6028 168.356C37.9968 171.18 33.4348 169.587 31.6238 167.994C29.8128 166.401 31.9138 163.504 32.5648 162.78C33.2158 162.056 33.5058 159.811 33.5058 159.811C33.5058 159.811 39.3708 115.061 38.9368 114.988C38.5018 114.915 38.5018 115.712 38.5018 115.712C38.5018 115.712 32.9988 157.276 32.6368 159.159C32.2748 161.042 30.5368 162.201 29.5958 162.852C28.6548 163.504 27.1338 165.242 22.9338 163.793C20.0318 162.793 18.9618 160.029 18.5788 158.417C18.3078 159.479 18.4278 160.692 18.9238 161.68C19.8538 163.529 21.6948 164.726 23.5148 165.709C24.4258 166.201 25.4518 166.675 26.4588 166.441C28.1958 166.039 29.3788 164.662 30.9468 163.744C29.7118 164.616 29.4938 166.487 30.1898 167.828C30.8858 169.17 32.2828 170.025 33.7268 170.47C35.4948 171.015 37.9968 171.164 39.6608 170.358C41.3258 169.552 42.8478 167.799 43.4748 165.917C43.3788 165.146 43.2098 165.532 40.6028 168.356Z" fill="#4E4D4D"/>
<path d="M94.0428 172.846C94.0428 172.846 66.0198 181.608 61.6748 182.26C57.3298 182.911 58.3438 179.291 58.6338 178.784C58.9228 178.277 59.5748 177.336 57.5478 178.06C55.5198 178.784 52.9848 178.784 51.8268 178.35C49.0028 176.25 51.2478 174.222 51.2478 174.222C51.2478 174.222 50.5228 174.222 49.0748 174.729C45.8878 175.598 43.0648 174.729 42.7748 172.629C42.4848 170.529 48.0608 168.357 54.3608 166.04C60.6608 163.723 64.7888 163.433 67.8298 162.926C70.8708 162.419 69.4228 161.043 69.4228 160.102C69.4228 159.161 67.1778 144.534 78.1118 133.382C89.0458 122.231 99.9798 130.051 102.298 131.644C103.423 132.417 103.249 131.602 102.775 130.56C100.142 128.051 96.5428 126.517 92.8888 126.197C87.8888 125.759 82.8588 127.392 78.6128 130.067C75.0648 132.303 71.9578 135.299 69.8548 138.928C65.8808 145.789 65.8058 154.152 65.9518 162.079C60.7368 162.928 55.7518 164.27 50.9478 166.27C49.4698 166.885 48.0098 167.561 46.5638 168.307C45.2828 168.851 43.9658 169.42 42.9888 170.412C42.0118 171.405 41.4488 172.938 41.9878 174.223C42.3328 175.045 43.0718 175.648 43.8778 176.031C45.6678 176.884 47.8948 176.744 49.5648 175.674C48.9418 177.435 50.5528 179.347 52.3758 179.76C54.1988 180.173 56.0768 179.542 57.8388 178.919C56.6308 180.174 57.6558 182.462 59.2768 183.102C60.8968 183.742 62.7188 183.269 64.3948 182.791C74.8738 179.804 85.1988 176.833 95.4408 173.398C95.6038 172.762 94.0428 172.846 94.0428 172.846Z" fill="#4E4D4D"/>
<path d="M102.6 19.767C99.9608 21.767 97.3228 23.767 94.6828 25.767L94.4758 25.901C89.3708 24.263 84.2658 22.625 79.1618 20.987C78.7358 20.851 78.2868 20.698 78.0028 20.354C77.9698 20.313 77.9398 20.271 77.9118 20.227C77.7118 19.91 77.6518 19.515 77.5988 19.139C76.6638 12.597 74.9818 6.162 72.5958 0C72.1568 0.87 71.7268 1.744 71.3028 2.621C71.6408 2.457 71.9688 2.51699 72.1518 3.13899C72.6058 4.68199 76.5128 19.272 76.9808 21.021C76.9418 21.195 77.0618 21.359 77.4618 21.484C79.0058 21.966 92.4268 26.214 93.0058 26.601C93.5848 26.988 95.2268 28.822 95.2268 29.497C95.7088 30.463 96.3848 29.787 95.8058 28.338C95.2268 26.89 95.8058 26.407 97.5438 25.056C99.2808 23.704 111.93 14.243 111.93 15.015C111.93 15.653 110.353 20.235 111.487 20.402C112.284 18.008 113.008 15.637 113.642 13.335C109.531 14.54 106.015 17.179 102.6 19.767Z" fill="#4E4D4D"/>
</svg>
