<svg width="166" height="135" viewBox="0 0 166 135" fill="none" xmlns="http://www.w3.org/2000/svg">
<path d="M165.38 65.0322C167.173 56.1402 164.734 46.7822 160.233 38.9072C155.732 31.0322 149.291 24.4532 142.603 18.3242C140.919 16.7812 139.172 15.2322 137.068 14.3432C133.417 12.8002 129.248 13.4502 125.369 14.2682C122.598 14.8522 119.375 15.9262 116.639 16.6562C103.387 7.04722 85.4159 4.55423 70.3129 10.8662C67.4499 4.24723 59.9979 0.579221 52.8029 0.0742205C44.8239 -0.485779 36.8629 2.17322 30.0469 6.35822C23.2329 10.5432 17.4429 16.1932 12.0099 22.0632C7.39289 27.0522 2.86188 32.4682 1.03888 39.0172C-0.183118 43.4082 -0.105112 48.0472 0.166888 52.5962C0.383888 56.2202 0.731887 59.9002 2.09789 63.2642C2.49789 64.2512 3.04289 65.2662 3.99089 65.7532C5.01189 66.2782 6.2429 66.0662 7.3599 65.8042C15.0889 63.9992 22.9549 59.9222 26.2099 52.6842C27.0559 50.8042 27.5619 48.7682 28.5869 46.9792C29.8449 44.7852 32.0679 41.6502 34.0119 40.0312C39.5009 35.4602 43.7089 31.0602 49.5309 26.9202C50.7609 26.0452 56.8509 22.5722 57.7129 24.3802C57.2339 25.4292 56.5739 26.5412 55.8019 27.6872C53.4059 31.2362 49.9029 35.1072 47.1789 38.4232C46.3599 39.4202 45.6119 40.3672 44.9849 41.2402C40.0649 48.0972 36.5739 56.1172 35.8369 64.5252C35.5329 67.9842 35.7059 71.4172 36.3729 74.7192C37.3279 79.4452 39.3059 83.9022 42.4259 87.7682C44.3539 90.1942 47.0339 91.7872 49.9489 92.9282C49.1869 95.3612 48.5349 97.8282 48.0089 100.323C47.8599 101.033 47.7199 101.763 47.8269 102.481C47.9339 103.188 48.2749 103.836 48.6469 104.446C51.2209 108.672 55.4469 111.69 59.9849 113.663C63.5509 115.214 66.8439 115.975 70.4419 116.72C70.3549 116.906 70.2909 117.101 70.2529 117.302C66.9339 117.348 63.7299 119.49 62.4349 122.549C61.1249 125.641 61.8429 129.485 64.1789 131.896C66.5159 134.308 70.3339 135.146 73.4659 133.935C76.5979 132.724 78.8589 129.535 78.9649 126.179C79.0099 124.763 78.7049 123.36 78.3419 121.991C77.8769 120.242 76.9529 118.219 75.1909 117.971C75.1969 117.869 75.1949 117.767 75.1829 117.665C75.1729 117.581 75.1579 117.496 75.1409 117.41C80.2619 117.77 85.4009 116.526 90.3799 115.181C92.5539 114.594 94.7519 113.975 96.6899 112.827C97.7259 112.213 98.6949 111.432 99.3219 110.404C99.7809 109.649 100.04 108.792 100.294 107.946C100.914 105.879 101.534 103.812 102.154 101.746C108.171 101.225 113.644 99.2042 118.084 94.3582C122.09 89.9862 124.367 84.3092 125.294 78.4122C125.581 76.5812 125.74 74.7292 125.779 72.8892L125.84 72.1122C126.179 63.4942 125.665 51.8942 123.393 43.5742C122.727 41.1362 122.092 38.1372 123.933 36.4062C124.151 36.2012 124.412 36.0192 124.71 35.9992C125.381 35.9532 125.807 36.6842 126.064 37.3052C129.697 46.0512 133.275 54.9082 134.952 64.2282C136.361 72.0572 136.4 80.0662 136.169 88.0182C136.148 88.7762 136.125 89.5512 136.351 90.2752C136.833 91.8212 138.391 92.8402 139.985 93.1272C143.55 93.7672 146.907 91.3962 149.628 89.0062C156.936 82.5772 163.454 74.5762 165.38 65.0322Z" fill="#C7B29A"/>
<path d="M98.8788 101.904L98.6229 101.889C97.8869 101.948 97.1488 101.947 96.4138 101.903C91.7538 104.668 85.3759 106.992 80.1078 106.731C76.9898 106.576 74.1059 105.92 71.1619 104.883C66.0909 103.097 60.1259 99.4512 56.9729 94.9552C56.5309 94.8762 56.0809 94.7872 55.6129 94.6792L55.3419 94.5762C53.5549 94.1382 51.7428 93.6202 50.0128 92.9432C49.2508 95.3762 48.5989 97.8432 48.0739 100.338C47.9249 101.048 47.7838 101.778 47.8918 102.495C47.9978 103.202 48.3388 103.85 48.7108 104.461C51.2848 108.687 55.5109 111.705 60.0489 113.678C63.6149 115.229 66.9089 115.99 70.5069 116.735C70.6969 116.33 70.9919 115.973 71.3689 115.731C72.0719 115.279 73.0169 115.235 73.7599 115.618C74.5589 115.814 75.0439 116.636 75.2039 117.425C80.3249 117.785 85.4639 116.541 90.4429 115.196C92.6179 114.609 94.8158 113.989 96.7538 112.842C97.7898 112.228 98.7579 111.447 99.3849 110.418C99.8449 109.663 100.104 108.807 100.358 107.96C100.978 105.894 101.598 103.827 102.218 101.76C101.121 101.855 100.008 101.9 98.8788 101.904Z" fill="#E52629"/>
<path d="M73.6539 97.9912C75.6459 99.4112 78.1909 100.169 80.5839 99.6632C82.3559 99.2882 83.8879 98.2802 85.2589 97.0652C82.0669 94.1552 79.8459 90.2392 78.6899 86.0712C77.8919 88.2702 76.7719 89.2242 74.8689 90.6992C73.3019 91.9152 71.4729 92.7342 69.5979 93.4012C70.6639 95.1702 71.9789 96.7972 73.6539 97.9912Z" fill="#F2979A"/>
<path d="M73.6539 97.9912C75.6459 99.4112 78.1909 100.169 80.5839 99.6632C82.3559 99.2882 83.8879 98.2802 85.2589 97.0652C82.0669 94.1552 79.8459 90.2392 78.6899 86.0712C77.8919 88.2702 76.7719 89.2242 74.8689 90.6992C73.3019 91.9152 71.4729 92.7342 69.5979 93.4012C70.6639 95.1702 71.9789 96.7972 73.6539 97.9912Z" fill="#F2979A"/>
<path d="M107.696 41.2382L107.672 41.1872C106.523 40.3832 104.915 40.4062 103.672 41.0572C102.43 41.7092 101.536 42.9102 101.041 44.2232C100.459 45.7672 100.398 47.5432 101.075 49.0482C101.753 50.5532 103.221 51.7262 104.867 51.8562C105.849 51.9342 106.842 51.6482 107.687 51.1422C109.389 50.1242 110.495 48.1772 110.496 46.1932C110.498 44.2092 109.397 42.2602 107.696 41.2382Z" fill="#754D24"/>
<path d="M86.6899 42.9472C87.4219 37.5722 85.2509 31.9592 81.3149 28.2252C77.3789 24.4912 74.0019 21.3742 68.3259 22.7922C64.1589 24.0462 59.9469 25.3192 56.1859 27.5102C56.0789 27.5732 55.9719 27.6392 55.8659 27.7032C53.4699 31.2532 49.9669 35.1232 47.2429 38.4392C46.6369 40.9292 46.6399 43.5582 46.8309 46.1272C47.0949 49.7082 47.8309 53.5262 50.4029 56.0302C52.0359 57.6182 54.2319 58.4892 56.4259 59.0992C60.3419 60.1872 64.6659 60.5312 68.3679 58.8542C69.8999 58.1602 71.2729 57.1442 72.8229 56.4892C74.2049 55.9052 75.6949 55.6202 77.1059 55.1092C82.2079 53.2612 85.9579 48.3222 86.6899 42.9472Z" fill="#DDD1C2"/>
<path d="M125.356 78.4262C123.89 75.3622 121.784 72.7572 118.687 71.1372C112.82 68.0672 105.049 66.9632 98.4469 67.4672C97.0899 67.5712 95.7159 67.6882 94.3739 67.4582C92.0339 67.0572 90.0109 65.6462 87.8149 64.7442C83.3499 62.9102 78.3139 63.2262 73.5359 63.9082C71.5059 64.1982 69.4439 64.5482 67.4169 64.2422C65.4319 63.9422 63.6009 63.0332 61.7489 62.2572C56.0179 59.8582 49.0779 58.7962 43.8389 62.1342C40.7059 64.1302 38.6159 67.4652 37.4229 70.9822C37.0059 72.2102 36.6899 73.4652 36.4369 74.7352C37.3919 79.4612 39.3689 83.9172 42.4889 87.7832C44.4179 90.2092 47.0979 91.8022 50.0119 92.9432C51.7419 93.6202 53.5539 94.1382 55.3409 94.5762L55.6119 94.6792C56.0809 94.7872 56.5299 94.8762 56.9719 94.9552C61.0779 95.6912 64.1369 95.1952 68.3909 93.8132C68.7929 93.6822 69.1959 93.5442 69.5959 93.4012C71.4719 92.7342 73.2999 91.9152 74.8669 90.6992C76.7699 89.2242 77.8899 88.2692 78.6879 86.0712C79.8439 90.2392 82.0649 94.1552 85.2569 97.0652C85.4579 97.2492 85.6629 97.4282 85.8709 97.6042C88.8279 100.084 92.5739 101.67 96.4119 101.903C97.1469 101.947 97.8849 101.948 98.6209 101.889L98.8769 101.904C100.006 101.9 101.119 101.855 102.215 101.76C108.232 101.239 113.704 99.2182 118.145 94.3712C122.151 90.0002 124.429 84.3232 125.356 78.4262Z" fill="#DDD1C2"/>
<path d="M72.6859 68.0712C71.2119 68.3472 69.5989 68.8422 68.8639 70.1492C68.2929 71.1652 68.4149 72.4582 68.9099 73.5122C69.4059 74.5662 70.2309 75.4262 71.0669 76.2362C72.9569 78.0682 74.9819 79.7602 77.1209 81.2942C78.0609 81.9682 79.0839 82.6342 80.2379 82.7132C81.3359 82.7892 82.3909 82.3252 83.3769 81.8362C86.6059 80.2342 89.7289 79.1342 92.5019 76.8322C93.1899 76.2612 94.4149 74.9172 94.4319 74.0232C94.5059 69.8462 80.1589 66.6722 72.6859 68.0712Z" fill="#754D24"/>
<path d="M79.0279 126.192C79.0729 124.776 78.7679 123.373 78.4039 122.004C77.9399 120.255 77.0159 118.232 75.2539 117.984C75.2589 117.882 75.2569 117.78 75.2449 117.678C75.2349 117.594 75.2209 117.509 75.2029 117.423C75.0429 116.634 74.5569 115.813 73.7589 115.616C73.0169 115.233 72.0709 115.277 71.3679 115.729C70.9909 115.971 70.6959 116.328 70.5059 116.733C70.4189 116.919 70.3549 117.114 70.3169 117.315C66.9979 117.361 63.7939 119.503 62.4979 122.562C61.1889 125.654 61.9059 129.498 64.2429 131.909C66.5799 134.321 70.3979 135.159 73.5299 133.948C76.6619 132.737 78.9219 129.549 79.0279 126.192Z" fill="#CDCCCC"/>
<path d="M65.2709 43.5052C66.5419 45.5152 69.1429 46.6072 71.4499 46.0322C73.7569 45.4562 75.5569 43.2112 75.5439 40.8342C75.5289 38.4572 73.6989 35.9862 71.3499 35.6272C69.4389 35.0742 67.3279 35.9872 65.9979 37.4682C65.0169 38.5622 64.3639 40.0262 64.5289 41.4862C64.6099 42.2052 64.8849 42.8942 65.2709 43.5052Z" fill="#754D24"/>
</svg>
