<svg width="367" height="246" viewBox="0 0 367 246" fill="none" xmlns="http://www.w3.org/2000/svg">
<g filter="url(#filter0_d)">
<path d="M346.431 92.4399C352.131 90.3399 351.831 71.6399 344.331 63.9399C345.031 72.2399 332.031 70.6399 327.231 74.3399C310.331 65.3399 289.031 65.0399 271.931 73.4399C268.331 70.6399 263.931 71.1399 259.931 69.5399C257.231 68.4399 254.731 65.9399 254.931 63.0399C249.431 68.6399 248.031 77.3399 249.131 85.1399C249.431 87.3399 250.231 89.7399 252.031 90.7399C249.431 94.8399 247.531 99.1399 246.531 103.44C237.431 142.14 278.531 149.14 273.131 154.84C265.931 162.44 244.431 153.24 221.231 161.34C218.531 155.94 219.031 142.44 213.331 127.64C202.931 100.84 175.431 95.6399 164.331 107.04C158.731 112.74 158.731 121.94 165.031 127.04C168.331 129.74 173.231 128.94 177.431 128.24C206.331 123.64 202.731 146.14 213.531 165.64C210.331 169.54 207.931 176.54 206.631 184.44C206.031 187.64 201.831 222.54 211.331 222.54C219.031 222.54 217.031 218.54 218.231 214.74C219.331 211.14 220.231 207.84 223.531 207.94C276.831 210.84 272.131 205.94 272.331 209.74C272.831 217.34 272.931 222.74 279.531 222.74C284.131 222.74 284.331 220.54 284.931 214.14C285.431 208.94 284.431 207.14 291.631 207.54C294.331 207.64 293.131 212.84 293.131 216.64C293.131 221.64 294.231 222.74 298.031 222.74C302.531 222.74 303.331 222.14 304.031 219.84C308.231 207.24 302.931 163.64 306.131 157.74C309.131 152.04 350.531 152.44 351.831 113.04C352.031 106.14 350.231 98.9399 346.431 92.4399Z" fill="#D4AB7A"/>
<path d="M270.931 203.74C268.131 199.94 262.631 199.84 258.031 200.44C256.531 200.64 255.031 200.84 253.731 201.44C253.231 201.64 252.731 201.94 252.131 201.94C251.631 201.84 251.131 201.54 250.731 201.14C245.931 197.24 239.331 197.04 233.131 197.04C234.331 197.74 235.331 198.84 235.931 200.14C234.531 199.64 222.731 196.04 219.531 210.94C220.331 209.24 221.431 208.04 223.431 208.14C265.431 210.44 271.431 207.84 272.231 208.54C272.331 206.84 271.931 205.14 270.931 203.74Z" fill="#E8C8A8"/>
<path d="M282.631 73.6399C285.031 73.7399 287.431 74.1399 289.431 75.4399C291.431 76.7399 292.731 79.3399 292.031 81.5399C291.731 82.5399 290.931 83.4399 289.831 83.5399C288.831 83.6399 287.731 82.5399 288.131 81.5399C286.931 82.0399 286.431 83.5399 286.831 84.7399C287.231 85.9399 288.231 86.8399 289.331 87.3399C290.431 87.9399 291.631 88.2399 292.831 88.6399C294.831 89.4399 296.731 90.6399 297.931 92.4399C299.331 94.5399 299.731 97.0399 300.031 99.5399C300.431 103.14 300.431 106.74 300.231 110.34C300.731 107.74 301.331 105.04 302.131 102.44C303.231 98.2399 305.031 93.7399 308.931 91.9399C310.431 91.2399 312.131 91.0399 313.531 90.1399C314.431 89.5399 315.131 88.7399 315.531 87.7399C316.131 86.4399 316.031 84.8399 315.231 83.6399C314.431 82.4399 312.631 81.9399 311.431 82.7399C312.731 83.3399 312.631 85.4399 311.431 86.1399C310.231 86.8399 308.631 86.3399 307.731 85.2399C306.931 84.1399 306.731 82.6399 306.831 81.2399C306.931 79.8399 307.531 78.2399 308.831 77.6399C309.631 77.2399 310.631 77.4399 311.531 77.5399C313.031 77.7399 314.631 78.0399 316.131 78.2399C317.131 78.4399 318.231 78.5399 319.231 78.3399C320.231 78.1399 321.231 77.5399 321.731 76.6399C322.231 75.4399 321.631 73.9399 320.631 73.1399C319.631 72.3399 318.231 72.0399 316.931 71.9399C317.731 72.5399 317.531 73.9399 316.731 74.4399C315.831 74.9399 314.731 74.6399 314.131 73.8399C313.531 73.0399 313.531 71.9399 313.831 71.0399C314.031 70.5399 314.231 70.0399 314.631 69.7399C314.731 69.6399 314.831 69.6399 314.831 69.5399C301.431 65.9399 286.731 66.9399 274.131 72.5399C274.631 72.7399 275.131 72.9399 275.631 73.0399C277.931 73.5399 280.231 73.4399 282.631 73.6399Z" fill="#E8C8A8"/>
<path d="M256.231 71.4399C255.431 71.2399 254.531 71.2399 253.931 71.8399C253.531 72.2399 253.531 72.7399 253.431 73.3399C252.931 77.0399 252.731 80.8399 252.631 84.5399C252.631 84.8399 252.631 85.2399 252.931 85.4399C253.231 85.6399 253.631 85.3399 253.931 85.1399C255.031 84.1399 255.931 82.9399 256.731 81.7399C257.031 81.1399 257.431 80.5399 257.931 80.2399C258.231 80.0399 258.731 79.9399 259.031 79.8399C270.331 75.7399 264.531 73.4399 256.231 71.4399Z" fill="#EFC0C9"/>
<path d="M342.131 73.5399C342.931 73.4399 343.831 73.4399 344.331 74.0399C344.631 74.4399 344.731 75.0399 344.731 75.5399C344.931 79.3399 344.831 83.0399 344.531 86.8399C344.531 87.1399 344.431 87.5399 344.131 87.7399C343.831 87.9399 343.431 87.6399 343.131 87.3399C342.131 86.2399 341.331 85.0399 340.631 83.6399C340.331 83.0399 340.131 82.4399 339.531 82.0399C339.231 81.8399 338.831 81.7399 338.431 81.5399C327.831 76.6399 333.731 74.9399 342.131 73.5399Z" fill="#EFC0C9"/>
<path d="M325.731 115.54C323.931 114.74 319.531 113.14 316.431 114.74C315.331 115.34 315.931 116.74 317.031 116.44C319.731 115.74 322.431 116.04 324.931 117.14C326.031 117.74 326.831 116.04 325.731 115.54Z" fill="#070708"/>
<path d="M280.031 112.34C276.931 110.74 272.531 112.34 270.731 113.14C269.631 113.64 270.431 115.24 271.531 114.84C274.031 113.74 276.731 113.54 279.431 114.14C280.631 114.44 281.131 112.94 280.031 112.34Z" fill="#070708"/>
<path d="M334.131 126.24C343.331 126.44 352.531 126.64 361.731 126.94C362.831 126.94 362.831 125.14 361.731 125.14C352.531 124.94 343.331 124.74 334.131 124.44C333.031 124.44 333.031 126.24 334.131 126.24Z" fill="#070708"/>
<path d="M334.631 130.64C341.831 132.04 349.031 133.54 356.331 134.94C357.431 135.14 357.931 133.44 356.831 133.24C349.631 131.84 342.431 130.34 335.131 128.94C334.031 128.64 333.531 130.34 334.631 130.64Z" fill="#070708"/>
<path d="M333.631 133.94C338.131 137.14 342.931 139.74 348.031 141.84C349.131 142.24 349.531 140.54 348.531 140.14C343.531 138.14 338.931 135.54 334.531 132.44C333.531 131.74 332.631 133.24 333.631 133.94Z" fill="#070708"/>
<path d="M259.731 124.54C250.531 124.74 241.331 124.94 232.131 125.24C231.031 125.24 231.031 123.44 232.131 123.44C241.331 123.24 250.531 123.04 259.731 122.74C260.831 122.74 260.831 124.54 259.731 124.54Z" fill="#070708"/>
<path d="M259.231 128.84C252.031 130.24 244.831 131.74 237.531 133.14C236.431 133.34 235.931 131.64 237.031 131.44C244.231 130.04 251.431 128.54 258.731 127.14C259.831 126.84 260.331 128.64 259.231 128.84Z" fill="#070708"/>
<path d="M260.231 132.14C255.731 135.34 250.931 137.94 245.831 140.04C244.731 140.44 244.331 138.74 245.331 138.34C250.331 136.34 254.931 133.74 259.331 130.64C260.331 129.94 261.231 131.44 260.231 132.14Z" fill="#070708"/>
<path d="M303.731 123.04C301.531 122.64 299.531 123.44 298.031 125.04C294.931 120.44 290.431 121.64 290.231 123.74C290.031 126.14 294.231 128.54 296.431 130.14C296.631 130.34 296.931 130.44 297.131 130.54C297.131 132.44 297.031 134.74 297.031 138.14C297.031 139.24 298.831 139.24 298.831 138.14C298.931 134.64 298.931 132.34 298.931 130.34C300.031 129.84 301.431 128.64 303.731 127.14C306.731 125.34 305.031 123.34 303.731 123.04Z" fill="#070708"/>
<path d="M192.131 33.4399C190.131 17.3399 164.831 4.53989 139.831 19.8399C128.931 26.4399 121.731 34.8399 116.531 39.4399C112.031 37.9399 106.731 37.0399 100.731 36.7399C99.8307 35.2399 99.4307 33.5399 98.8307 31.8399C98.2307 29.9399 97.0307 26.8399 94.8307 26.5399C94.9307 29.3399 95.2307 32.1399 94.9307 34.9399C92.8307 32.6399 90.0307 31.1399 86.9307 30.6399C88.2307 32.6399 89.5307 34.7399 90.8307 36.7399C83.6307 37.2399 77.7307 38.5399 72.7307 40.6399C69.8307 34.4399 66.1307 25.6399 59.6307 17.1399C41.7307 -6.06012 13.4307 -3.26012 5.73073 11.0399C1.93073 18.1399 4.53073 27.2399 12.1307 30.3399C16.1307 32.0399 20.6307 29.8399 24.5307 27.9399C47.2307 17.2399 52.8307 31.8399 63.6307 46.2399C52.0307 56.5399 49.9307 74.2399 50.6307 95.4399C50.7307 98.0399 50.8307 100.44 50.8307 102.74C46.3307 107.04 43.5307 113.34 43.5307 122.44C43.5307 143.34 50.5307 152.84 61.3307 157.24C61.1307 159.24 61.0307 161.34 61.0307 163.54C58.1307 162.24 55.0307 160.94 53.8307 160.44C45.4307 157.44 42.4307 156.44 39.6307 162.24C36.0307 170.04 39.6307 173.24 61.5307 183.54C61.9307 196.34 62.4307 205.54 65.0307 225.24C66.3307 235.24 69.2307 237.64 76.0307 237.64C92.5307 237.64 75.4307 215.74 96.2307 215.74C116.931 215.74 99.9307 237.64 116.431 237.64C123.231 237.64 126.131 235.24 127.431 225.24C129.931 205.34 130.831 196.34 131.531 183.54C153.531 173.24 157.231 170.04 153.631 162.14C150.931 156.24 147.931 157.24 139.431 160.34C138.231 160.74 135.131 162.14 132.231 163.44C132.231 161.24 132.031 159.14 131.831 157.04C142.631 152.34 149.631 142.54 149.631 122.34C149.631 113.14 146.931 106.94 142.331 102.64C142.431 100.34 142.531 97.9399 142.631 95.3399C143.431 72.7399 140.431 54.2399 126.631 44.3399C141.131 35.0399 151.531 24.7399 168.231 42.2399C171.231 45.4399 174.631 49.0399 179.031 48.9399C187.331 48.9399 193.031 41.4399 192.131 33.4399Z" fill="#835E42"/>
<path d="M43.7307 122.54C43.7307 161.34 68.0307 160.94 95.4307 161.34C123.731 161.74 149.831 161.34 149.831 122.54C149.831 93.4399 122.231 93.4399 96.8307 93.4399C71.3307 93.4399 43.7307 93.4399 43.7307 122.54Z" fill="#B58A6A"/>
<path d="M78.3307 96.6399C77.4307 106.54 86.7307 122.74 96.2307 122.94C106.031 123.14 116.031 106.84 115.131 96.6399C114.331 87.9399 105.531 89.4399 96.7307 89.4399C87.9307 89.5399 79.1307 88.0399 78.3307 96.6399Z" fill="#100B0B"/>
<path d="M76.6307 63.2399C72.3307 63.2399 68.8307 65.7399 68.8307 75.5399C68.8307 84.9399 72.3307 87.8399 76.6307 87.8399C80.9307 87.8399 84.4307 85.3399 84.4307 75.5399C84.4307 64.8399 80.9307 63.2399 76.6307 63.2399Z" fill="white"/>
<path d="M76.6307 73.4399C74.4307 73.4399 72.7307 74.7399 72.7307 79.6399C72.7307 84.3399 74.4307 85.8399 76.6307 85.8399C78.8307 85.8399 80.5307 84.5399 80.5307 79.6399C80.5307 74.2399 78.7307 73.4399 76.6307 73.4399Z" fill="#100B0B"/>
<path d="M115.931 63.2399C120.231 63.2399 123.731 65.7399 123.731 75.5399C123.731 84.9399 120.231 87.8399 115.931 87.8399C111.631 87.8399 108.131 85.3399 108.131 75.5399C108.131 64.8399 111.631 63.2399 115.931 63.2399Z" fill="white"/>
<path d="M115.931 73.4399C118.131 73.4399 119.831 74.7399 119.831 79.6399C119.831 84.3399 118.131 85.8399 115.931 85.8399C113.731 85.8399 112.031 84.5399 112.031 79.6399C112.031 74.2399 113.831 73.4399 115.931 73.4399Z" fill="#100B0B"/>
<path d="M128.131 137.54C126.831 136.94 125.631 136.24 124.531 135.44C124.331 135.14 123.231 134.64 121.531 132.54C120.631 131.44 119.131 133.04 120.031 134.04C120.631 134.84 121.331 135.54 122.031 136.14C115.631 144.14 106.231 148.14 96.8307 148.14C87.4307 148.14 78.0307 144.14 71.6307 136.14C72.3307 135.54 73.0307 134.74 73.6307 134.04C74.5307 132.94 72.9307 131.44 72.1307 132.54C70.4307 134.64 69.4307 135.14 69.1307 135.44C68.0307 136.24 66.8307 136.94 65.5307 137.54C64.2307 138.14 65.3307 139.94 66.6307 139.44C67.8307 138.94 68.9307 138.34 69.9307 137.54C77.0307 146.24 87.0307 150.24 96.8307 150.24C106.731 150.34 116.631 146.24 123.731 137.54C124.731 138.24 125.931 138.94 127.031 139.44C128.231 139.94 129.331 138.14 128.131 137.54Z" fill="#100B0B"/>
<path d="M80.9307 194.94C80.9307 206.54 88.6307 209.14 96.7307 209.24C105.131 209.34 112.531 206.54 112.531 194.94C112.531 186.24 104.331 183.14 96.7307 183.14C89.1307 183.14 80.9307 186.24 80.9307 194.94Z" fill="#B58A6A"/>
</g>
<defs>
<filter id="filter0_d" x="0" y="0" width="366.556" height="245.64" filterUnits="userSpaceOnUse" color-interpolation-filters="sRGB">
<feFlood flood-opacity="0" result="BackgroundImageFix"/>
<feColorMatrix in="SourceAlpha" type="matrix" values="0 0 0 0 0 0 0 0 0 0 0 0 0 0 0 0 0 0 127 0"/>
<feOffset dy="4"/>
<feGaussianBlur stdDeviation="2"/>
<feColorMatrix type="matrix" values="0 0 0 0 0 0 0 0 0 0 0 0 0 0 0 0 0 0 0.25 0"/>
<feBlend mode="normal" in2="BackgroundImageFix" result="effect1_dropShadow"/>
<feBlend mode="normal" in="SourceGraphic" in2="effect1_dropShadow" result="shape"/>
</filter>
</defs>
</svg>
